<svg xmlns="http://www.w3.org/2000/svg" width="157.61" height="152.39" viewBox="0 0 157.61 152.39">
  <g id="bascket" transform="translate(1 1)">
    <path id="Caminho_15" data-name="Caminho 15" d="M298.82,487.42a6.84,6.84,0,0,1-6.83-6.84V447a6.84,6.84,0,0,1,13.67,0v33.54a6.85,6.85,0,0,1-6.84,6.88Zm0-44.95a4.58,4.58,0,0,0-4.57,4.57v33.54a4.57,4.57,0,0,0,9.14,0V447A4.58,4.58,0,0,0,298.82,442.47Z" transform="translate(-219.69 -346.07)" stroke="#000" stroke-width="2"/>
    <path id="Caminho_16" data-name="Caminho 16" d="M317,487.9h-.68a6.84,6.84,0,0,1-6.13-7.47l3.3-33.43a6.8,6.8,0,0,1,6.79-6.17h.68a6.85,6.85,0,0,1,6.13,7.48l-3.29,33.38a6.8,6.8,0,0,1-6.8,6.21Zm3.27-44.78a4.56,4.56,0,0,0-4.54,4.12l-3.29,33.38a4.56,4.56,0,0,0,4.1,5,3.543,3.543,0,0,0,.46,0,4.55,4.55,0,0,0,4.54-4.12l3.29-33.38a4.58,4.58,0,0,0-4.1-5Z" transform="translate(-219.69 -346.07)" stroke="#000" stroke-width="2"/>
    <path id="Caminho_17" data-name="Caminho 17" d="M335.48,488.2a8.071,8.071,0,0,1-1-.07,6.85,6.85,0,0,1-5.79-7.75l4.8-33.19a6.88,6.88,0,0,1,6.76-5.86,6.6,6.6,0,0,1,1,.07,6.84,6.84,0,0,1,5.78,7.74l-4.8,33.2a6.87,6.87,0,0,1-6.75,5.86Zm4.79-44.61a4.59,4.59,0,0,0-4.51,3.92L331,480.71a4.58,4.58,0,0,0,.87,3.39,4.52,4.52,0,0,0,3,1.78,4.894,4.894,0,0,0,.66.05A4.6,4.6,0,0,0,340,482l4.8-33.19a4.58,4.58,0,0,0-3.87-5.18,4.89,4.89,0,0,0-.66-.04Z" transform="translate(-219.69 -346.07)" stroke="#000" stroke-width="2"/>
    <path id="Caminho_18" data-name="Caminho 18" d="M280.41,487.9h0a6.8,6.8,0,0,1-6.79-6.16l-3.29-33.38a6.85,6.85,0,0,1,6.13-7.48h.67a6.81,6.81,0,0,1,6.8,6.17l3.29,33.38a6.84,6.84,0,0,1-6.13,7.47C280.86,487.89,280.64,487.9,280.41,487.9Zm-3.28-44.78h-.45a4.58,4.58,0,0,0-4.1,5l3.29,33.38a4.54,4.54,0,0,0,4.54,4.12h.46a4.55,4.55,0,0,0,4.09-5l-3.29-33.38A4.54,4.54,0,0,0,277.13,443.12Z" transform="translate(-219.69 -346.07)" stroke="#000" stroke-width="2"/>
    <path id="Caminho_19" data-name="Caminho 19" d="M261.94,488.2h0a6.87,6.87,0,0,1-6.76-5.86l-4.8-33.2a6.84,6.84,0,0,1,5.78-7.74,6.59,6.59,0,0,1,1-.07,6.86,6.86,0,0,1,6.75,5.86l4.81,33.19a6.85,6.85,0,0,1-5.79,7.75A8.071,8.071,0,0,1,261.94,488.2Zm-4.79-44.61a5,5,0,0,0-.67.05,4.58,4.58,0,0,0-3.86,5.18l4.8,33.19a4.59,4.59,0,0,0,4.52,3.92h0a4.89,4.89,0,0,0,.66-.05,4.52,4.52,0,0,0,3-1.78,4.58,4.58,0,0,0,.87-3.39l-4.81-33.2A4.59,4.59,0,0,0,257.15,443.59Z" transform="translate(-219.69 -346.07)" stroke="#000" stroke-width="2"/>
    <path id="Caminho_20" data-name="Caminho 20" d="M348,496.46H247.15a10.21,10.21,0,0,1-10.2-10.1l-9.28-56h-1.18a6.81,6.81,0,0,1-6.8-6.8V406.92a6.8,6.8,0,0,1,6.8-6.79h62.2v-47.9a6.16,6.16,0,0,1,6.16-6.16h4.69a6.17,6.17,0,0,1,6.16,6.16v47.9h62.8a6.8,6.8,0,0,1,6.8,6.79v16.62a6.81,6.81,0,0,1-6.8,6.8h-1l-9.28,56A10.21,10.21,0,0,1,348,496.46ZM226.5,402.39a4.53,4.53,0,0,0-4.53,4.53v16.62a4.54,4.54,0,0,0,4.53,4.54h3.1l9.62,58.18a7.94,7.94,0,0,0,7.94,7.93H348a7.93,7.93,0,0,0,7.93-7.93v-.18l9.61-58h2.95a4.54,4.54,0,0,0,4.53-4.54V406.92a4.53,4.53,0,0,0-4.53-4.53H303.43V352.23a3.9,3.9,0,0,0-3.89-3.9h-4.69a3.91,3.91,0,0,0-3.9,3.9v50.16Z" transform="translate(-219.69 -346.07)" stroke="#000" stroke-width="2"/>
    <path id="Caminho_21" data-name="Caminho 21" d="M297.48,425.08a10.94,10.94,0,0,1-8.79-17.47V352.29a6.16,6.16,0,0,1,6.15-6.15h4.68a6.16,6.16,0,0,1,6.16,6.15v54.57a11,11,0,0,1-8.2,18.22Zm-2.64-76.67a3.89,3.89,0,0,0-3.89,3.88v56.1l-.25.31a8.69,8.69,0,1,0,13-.61l-.32-.33V352.29a3.89,3.89,0,0,0-3.89-3.88Z" transform="translate(-219.69 -346.07)" stroke="#000" stroke-width="2"/>
    <rect id="Retângulo_1" data-name="Retângulo 1" width="142.02" height="2.27" transform="translate(6.8 82.01)" stroke="#000" stroke-width="2"/>
  </g>
</svg>
