<svg xmlns="http://www.w3.org/2000/svg" width="290.828" height="228.628" viewBox="0 0 290.828 228.628">
  <g id="logo" transform="translate(0.019 0.02)">
    <path id="Caminho_33" data-name="Caminho 33" d="M200.33,21c-.23-1.39-.43-2.8-.59-4.24a38.78,38.78,0,0,1-.24-4.28,33.13,33.13,0,0,1,.79-7.09,23,23,0,0,1,3-7.12l1.24.11a9.908,9.908,0,0,0-.07,1.25V1a52.459,52.459,0,0,0,.82,8.51,52.889,52.889,0,0,0,3.16,10.78Z" transform="translate(55.14 60.97)" fill="red"/>
    <path id="Caminho_34" data-name="Caminho 34" d="M177,64.9c-.23-1.39-.42-2.81-.58-4.25a38.776,38.776,0,0,1-.24-4.28,32.482,32.482,0,0,1,.79-7.08,22.84,22.84,0,0,1,3-7.12l1.24.11a9.75,9.75,0,0,0-.07,1.24v1.39a52.39,52.39,0,0,0,4,19.29Z" transform="translate(55.14 60.97)" fill="red"/>
    <circle id="Elipse_4" data-name="Elipse 4" cx="113.71" cy="113.71" r="113.71" transform="translate(1.15 0.58)" fill="#fff"/>
    <path id="Caminho_35" data-name="Caminho 35" d="M189.83,63l-2.27-.15v-.73L188.9,62a7.948,7.948,0,0,0,1.06-.11,2.33,2.33,0,0,1,.52-.06,3.28,3.28,0,0,0,.72,0A30.4,30.4,0,0,1,189,55.3a34.61,34.61,0,0,1-.75-7.27,27.336,27.336,0,0,1,.1-2.82,21.489,21.489,0,0,1,.45-3l8-.58a29.72,29.72,0,0,0-2.3,7.72,53.38,53.38,0,0,0-.72,8.79v1.77a15.314,15.314,0,0,0,.07,1.74c2.65-.34,5.4-.73,8.23-1.15s5.84-.94,9-1.52l-2,4.72-8.51-.11-2.88-.09c-1,0-2.24-.09-3.71-.17q.08.52.18,1.08a6,6,0,0,0,.24,1l-1.17.15c-.28-.42-.54-.8-.79-1.14a9.061,9.061,0,0,1-.72-1.17Z" transform="translate(55.14 60.97)" fill="red"/>
    <path id="Caminho_36" data-name="Caminho 36" d="M216.32,41.36c1.24,2.22,2.44,4.21,3.61,6a39,39,0,0,0,4,5q2.82-4.53,10.64-11l1.1.33q-1.52,2-2.82,4c-.86,1.36-1.69,2.75-2.47,4.17a33.426,33.426,0,0,0-1.82,3.5,13.731,13.731,0,0,0-.85,2.47c.59.56,1.16,1.08,1.71,1.57s1.1,1,1.65,1.43l-1,.4-1.31-.7-.48-.25-.27-.15-.27-.14c-.1-.05-.23-.14-.42-.26a25.25,25.25,0,0,0-.2,3.18v1.47c0,.54.06,1.05.1,1.54a25.14,25.14,0,0,1-8,1,14,14,0,0,1,.69-5.16,23.759,23.759,0,0,1,2.26-4.87c-1.09-.71-2.18-1.45-3.26-2.24s-2.07-1.56-3-2.34a32,32,0,0,1-2.54-2.54c-.87-1-1.76-2.06-2.68-3.28a15.271,15.271,0,0,1,2.06-1.3C213.8,42.67,215,42.07,216.32,41.36Z" transform="translate(55.14 60.97)" fill="red"/>
    <path id="Caminho_37" data-name="Caminho 37" d="M167,80.56c-.62-.08-1.24-.15-1.84-.18l-1.86-.12-1.3-.07-1.29-.07v3.34H163c2.14,0,4.25.1,6.33.26.23-.84.46-1.68.67-2.52-.38-.1-.74-.19-1.08-.26A14.452,14.452,0,0,0,167,80.56Z" transform="translate(55.14 60.97)" fill="red"/>
    <path id="Caminho_38" data-name="Caminho 38" d="M122.35,54.43c-.55-1.2-1.17-2.45-1.85-3.75s-1.33-2.49-1.92-3.54c-.83,1.18-1.69,2.48-2.58,3.92a24.38,24.38,0,0,0-2.09,4.14c1.37-.08,2.79-.19,4.25-.35S121,54.55,122.35,54.43Z" transform="translate(55.14 60.97)" fill="red"/>
    <path id="Caminho_39" data-name="Caminho 39" d="M99,81.12a6.691,6.691,0,0,0-.88-1.07c-1,0-1.89.06-2.62.12s-1.4.14-2,.24a5.29,5.29,0,0,1,.62,2.7v.78a14.57,14.57,0,0,1-.33,2.28A11.26,11.26,0,0,1,93,88.42c1.16-.07,2.18-.15,3.06-.26s1.64-.24,2.29-.38a16.039,16.039,0,0,0,1.66-.44,10.83,10.83,0,0,0,1.15-.44,6.48,6.48,0,0,0-1.06-4.1A15.856,15.856,0,0,0,99,81.12Z" transform="translate(55.14 60.97)" fill="red"/>
    <path id="Caminho_40" data-name="Caminho 40" d="M160.86,84.9a13,13,0,0,0,.38,1.8,17.8,17.8,0,0,0,.78,2.18h5.76q.75-2.3,1.41-4.65c-1.45.08-2.76.15-3.93.23C163.69,84.56,162.22,84.71,160.86,84.9Z" transform="translate(55.14 60.97)" fill="red"/>
    <path id="Caminho_41" data-name="Caminho 41" d="M162.23,2.27,160-2.27l-1,.11q1.2,2.15,2.3,4.35Z" transform="translate(55.14 60.97)" fill="red"/>
    <path id="Caminho_42" data-name="Caminho 42" d="M193.05,12.52l1.38.26,2.33-3.63A16.874,16.874,0,0,0,194.63,9l-2.13-.1c-.13-1-.24-2-.31-2.86s-.1-1.79-.1-2.74a27.938,27.938,0,0,1,.41-4.91l-1.23-.15a21,21,0,0,0-2.64,5.18,26.451,26.451,0,0,0-1.27,5.37h-5.19q-1.26,0-2.37.09L176.34,9c-1.26.08-2.55.17-3.88.3-.23-1.62-.38-3-.45-4.27s-.1-2.41-.1-3.53v-2a14.468,14.468,0,0,1,.1-1.62l-1.17-.12a26,26,0,0,0-3.5,6.9,28.618,28.618,0,0,0-1.1,5.33l-1.24.24c.11.3.24.59.35.88h.82v2.23c1,2.58,1.82,5.19,2.6,7.85l6-1.3a37.2,37.2,0,0,1-1.34-4.69c-.29-1.44-.56-2.86-.79-4.28h4.95c1.51,0,2.95.12,4.32.22l2.47.2c.83.06,1.67.14,2.54.24,0,.44-.07.81-.07,1.12v1.08a35.559,35.559,0,0,0,.18,3.6,34.865,34.865,0,0,0,.51,3.57l7.76-.73c-.51-1.34-.95-2.66-1.34-4S193.33,13.76,193.05,12.52Z" transform="translate(55.14 60.97)" fill="red"/>
    <path id="Caminho_43" data-name="Caminho 43" d="M170.77,84.16v-.39c-.48,0-1-.06-1.46-.09l-.15.56Z" transform="translate(55.14 60.97)" fill="red"/>
    <path id="Caminho_44" data-name="Caminho 44" d="M171.09,81.46V80.5a3.044,3.044,0,0,0-.06-.72c-.06-.26,0-.51-.07-.76h-.38c-.17.73-.34,1.44-.52,2.16Z" transform="translate(55.14 60.97)" fill="red"/>
    <path id="Caminho_45" data-name="Caminho 45" d="M167.3,90.63l1.28.2,1.71.23,1.61-1.94L170.78,89h-1.22l-1.2-.06h-.58c-.19.58-.38,1.15-.58,1.72Z" transform="translate(55.14 60.97)" fill="red"/>
    <path id="Caminho_46" data-name="Caminho 46" d="M174,80.51a9.877,9.877,0,0,0-.2-1.07c-.08-.37-.16-.73-.23-1.08l.65-.08a7.888,7.888,0,0,1,.66,1c.17.31.31.62.44.9,1.45-.32,2.86-.59,4.22-.81s2.55-.37,3.57-.47v-.08l-.21-.26-.2-.26.62-.16.88.66c.44,0,.87-.06,1.31-.06a5.35,5.35,0,0,1,1.9,2.26l-.62-.1-.36-.06a4.12,4.12,0,0,1,.73,1.18c.14.38.28.72.4,1l.07.17a9.253,9.253,0,0,1,.29,1,4.061,4.061,0,0,1,.11,1h.51l.08.39-.59.12a4.9,4.9,0,0,1,0,.5,2.894,2.894,0,0,1-.11.62l-4-.19c.05-.1.08-.18.11-.23a1.46,1.46,0,0,0,.07-.24l-.62.06h-.54q1.74,1.18,3.24,2c1,.57,1.92,1.05,2.77,1.46A12.44,12.44,0,0,1,185.2,91a14.67,14.67,0,0,1-2-1.69c-.8-.78-1.75-1.78-2.84-3h-3.1a7.79,7.79,0,0,0,.13,1,7.607,7.607,0,0,1,.06,1,8.5,8.5,0,0,1-.1,1.23A10.721,10.721,0,0,1,177,91h-4.15c.29-.85.53-1.65.71-2.4s.33-1.48.45-2.2l-1.67-.2.69-1.94,1.17.14V82.44a4.961,4.961,0,0,0-.09-1.13l-1.75.15-.22-.35Zm10.06.25h-.91q-1.75,0-3.66.12c-1.28.08-2.51.17-3.7.27a16.243,16.243,0,0,1,.67,1.92c.19.64.32,1.22.42,1.73.39.07.77.12,1.15.17l1.18.11-.36-.56c-.12-.18-.24-.37-.37-.55l.59-.16.65.47,1.39.91q.76,0,1.56.06h1.61c.12-.57.2-1,.25-1.45a6.378,6.378,0,0,0,0-1.15,5.512,5.512,0,0,0-.11-.8,5.219,5.219,0,0,0-.18-.56l-.08-.22Z" transform="translate(55.14 60.97)" fill="red"/>
    <path id="Caminho_47" data-name="Caminho 47" d="M192.19,78.43c.65,1.18,1.29,2.23,1.91,3.16a20.441,20.441,0,0,0,2.13,2.67,26.76,26.76,0,0,1,5.65-5.83l.58.18c-.54.7-1,1.41-1.5,2.13s-.89,1.47-1.31,2.22a17.658,17.658,0,0,0-1,1.85,8.459,8.459,0,0,0-.46,1.32l.91.83.88.76-.51.21-.69-.37-.26-.13-.15-.08-.14-.08-.22-.13a13.086,13.086,0,0,0-.11,1.69v1.59a13,13,0,0,1-4.22.5,7.47,7.47,0,0,1,.36-2.74,12.51,12.51,0,0,1,1.2-2.58c-.58-.37-1.16-.77-1.73-1.18s-1.1-.83-1.58-1.25a17.169,17.169,0,0,1-1.35-1.35c-.46-.51-.93-1.09-1.42-1.74a9,9,0,0,1,1.09-.69Z" transform="translate(55.14 60.97)" fill="red"/>
    <path id="Caminho_48" data-name="Caminho 48" d="M168.86,21.25l-1.27.27a20.472,20.472,0,0,1-1-4.41c-.14-1.14-.24-2.38-.3-3.71q-.42-1.12-.87-2.25h-1.17l-.2-.66,1-.2c-1.12-2.75-2.35-5.44-3.67-8.08-2.35-.24-4.32-.36-5.86-.36a32.61,32.61,0,0,0-3.92.22c-1.23.12-2.46.29-3.67.51s-2.48.5-3.81.85a27.41,27.41,0,0,1,5.36,2.89,69.744,69.744,0,0,1,5.9,4.39c1,.85,1.91,1.59,2.57,2.21s1.18,1.12,1.55,1.49l1-.39,1-.35.89.44-2,1.5a9,9,0,0,1,.48,1c.14.34.26.66.38.94a9.331,9.331,0,0,1,.31,1l-5.7,1.42a1.128,1.128,0,0,0-.28-.14c-.19-.07-.27-.14-.27-.19l-.41-.95a21.62,21.62,0,0,1-6,1.87,25.44,25.44,0,0,1-6.39.51c-1-.07-1.91-.17-2.85-.29s-1.86-.26-2.78-.4l2.89-3.48a41.93,41.93,0,0,0,6.65.66,25.39,25.39,0,0,0,3.92-.3,21.76,21.76,0,0,0,3.5-.8,21,21,0,0,0-3-4.41,30.06,30.06,0,0,0-4.19-3.83c-1.46-1.14-2.67-2-3.6-2.7a15.988,15.988,0,0,0-2-1.32L140,4.43l-1.34.38-1.27.37-.86.24,2.61-2.09c-.32-.14-.73-.36-1.24-.64l-1.85-1,4.39.77A39.63,39.63,0,0,1,145.35.48a49.56,49.56,0,0,1,4.94-1.34c1.65-.35,3.28-.64,4.91-.86,1.3-.18,2.59-.31,3.87-.44A114.34,114.34,0,0,0,7.61-48.71a30.7,30.7,0,0,1,5.82,18A30.86,30.86,0,0,1-17.43.18,30.74,30.74,0,0,1-37.68-7.41a114.3,114.3,0,1,0,204.88,98c-.53-.1-1.1-.19-1.72-.25l-2.91-.29.4.66a16.343,16.343,0,0,0-1.88.08c-.72.08-1.53.12-2.46.21l-.36-1.18-1.78-.18v-.35a3.459,3.459,0,0,0,.78-.09l.89-.12q-.1-.59-.18-1.26a12.752,12.752,0,0,1-.07-1.38V86a4.241,4.241,0,0,1,0-.51,9.712,9.712,0,0,1-1,.27,2.88,2.88,0,0,0-.66-2l1.9-.16a13.642,13.642,0,0,1,.4-1.74,14.878,14.878,0,0,1,.65-1.74h-1.54a6.379,6.379,0,0,0-.82,0l-.15-.37,1.09-.15,1.75-.24.26-.41.25-.5h.66v.74c1.24-.08,2.46-.12,3.68-.14h6.1a115,115,0,0,0-1.67-57.75ZM106.29,1V-.22a9.07,9.07,0,0,1,.07-1.21c1.11-.22,2.39-.4,3.85-.55s3-.25,4.66-.32c-.5,1.09-.94,2.14-1.31,3.12a22.51,22.51,0,0,0-.82,2.69,18.251,18.251,0,0,0-.31,2.17c-.07.78-.1,1.59-.1,2.45V9.19c.09,1.05.23,2.13.41,3.26s.41,2.29.69,3.51q2.75.22,6,.22c1.33,0,2.7,0,4.12-.06s3-.11,4.67-.23a20.709,20.709,0,0,1-1.31-4.05,24.888,24.888,0,0,1-.48-4,33.809,33.809,0,0,1,1.44-9.19l.48-.29c.78-.12,1.52-.2,2.23-.24S132-2,132.72-2a11.817,11.817,0,0,1,1.4.06l1.62.13a41,41,0,0,0-1.89,4.66c-.53,1.58-1,3-1.34,4.38h0a25,25,0,0,0-.82,4c-.19,1.42-.3,2.81-.35,4.18.64-.12,1.23-.23,1.75-.31s1-.18,1.48-.28l.69.55c-.69.27-1.37.54-2,.82s-1.27.52-1.82.72a11.639,11.639,0,0,0,.07,1.59,14.253,14.253,0,0,0,.21,1.48l-1.17.15-.82-1.24a10,10,0,0,1-.69-1.25,32.32,32.32,0,0,1-3.4.88c-1.21.24-2.41.45-3.6.62q-3.65.51-6.25.62c.32.61.57,1.08.76,1.39l-1,.33c-.6-.41-1.06-.75-1.38-1a11.378,11.378,0,0,1-.89-.79h-.14c-1-.05-2-.12-3-.2s-2.09-.23-3.15-.42a8.871,8.871,0,0,1-.59-1.06,2.33,2.33,0,0,1-.25-1,2.05,2.05,0,0,1,.25-.91,7.549,7.549,0,0,1,.59-1.06,4.4,4.4,0,0,1,.93.23,6.751,6.751,0,0,0,.66.17l1,.22A34.07,34.07,0,0,1,106.29,1Zm-1,55.16c-.46-.12-.87-.24-1.24-.36l.35-.63,3.43.22c1.37-2,2.84-3.89,4.39-5.83a30.91,30.91,0,0,1,4.94-5,19.8,19.8,0,0,0-1.33-1.87c-.39-.46-.79-.9-1.21-1.32l1.17-.33c.32.25.57.44.76.57l.44.33.31.2.28.18.65.35c.11.06.35.23.72.5l1.44-.92,1-.62q.48-.3,1-.66l1.17.37-.69.65-1.23,1.25a10,10,0,0,0-1.1,1.28,37.851,37.851,0,0,1,3.5,3.92q1.65,2.12,3,4l1.1,1.43,5.56-.77L131,56.7a1.74,1.74,0,0,1-.82.18,28.438,28.438,0,0,1,1.47,2.91q.58,1.38.93,2.25a5.68,5.68,0,0,0,.55,1.28l-7.21,2.24c-.27-1.35-.62-2.78-1-4.3a44.723,44.723,0,0,0-1.4-4.26c-1.06,0-2.12.07-3.19.07h-7.08a14.121,14.121,0,0,0-.86,2.82c-.2,1-.42,2-.65,3a9.371,9.371,0,0,1-.2.93,7.9,7.9,0,0,0-.21.94l-7.83.29c.28-.73.55-1.48.83-2.25s.56-1.53.86-2.29.59-1.47.89-2.14a16,16,0,0,1,.93-1.81c-.72-.2-1.29-.33-1.75-.45ZM78.63,2.69l-1.86-1,4.4.77A39.5,39.5,0,0,1,86,.48,50.3,50.3,0,0,1,91-.86c1.65-.35,3.29-.64,4.91-.86s3.24-.4,4.84-.55l2.2,4.54a67,67,0,0,0-6.73-.44,32.44,32.44,0,0,0-3.91.22c-1.24.12-2.46.29-3.68.51s-2.48.5-3.81.85A27.13,27.13,0,0,1,90.16,6.3a69.742,69.742,0,0,1,5.9,4.39c1,.85,1.91,1.59,2.58,2.21s1.17,1.12,1.54,1.49l1-.39,1-.35.89.44-2,1.5a6.45,6.45,0,0,1,.48,1l.38.94a7.43,7.43,0,0,1,.31,1l-5.7,1.42a1.161,1.161,0,0,0-.27-.14c-.18-.07-.28-.14-.28-.19l-.41-.95a21.41,21.41,0,0,1-6,1.87,25.4,25.4,0,0,1-6.38.51c-1-.07-1.92-.17-2.85-.29s-1.87-.26-2.78-.4l2.88-3.48a41.93,41.93,0,0,0,6.66.66,25.35,25.35,0,0,0,3.91-.3,21.76,21.76,0,0,0,3.5-.8,20.63,20.63,0,0,0-3-4.41A29.5,29.5,0,0,0,87.33,8.2c-1.46-1.14-2.66-2-3.6-2.7a16.775,16.775,0,0,0-2-1.32l-1.06.29-1.34.38-1.27.37-.86.24,2.61-2.09C79.54,3.19,79.13,3,78.63,2.69Zm1.54,58.58a27.85,27.85,0,0,1-.38-4.64,6.691,6.691,0,0,0-.06-1.05,3,3,0,0,1,.06-1.08l-1.3.62-1.1-4.06L78,51h.69a2.81,2.81,0,0,1,1.3.11.569.569,0,0,1,.27-.11c.23-1,.48-2.06.76-3.12a17.56,17.56,0,0,1,1.17-3.21c-1.15,0-2.07-.07-2.78-.07H77.79l-.2-.7,5.28-.8c.05,0,.06-.1,0-.13s0-.08,0-.13l1-1.76,1.24.08V42a4.19,4.19,0,0,1,0,.84c1-.1,2.29-.2,3.7-.29s3.07-.2,5-.3l5-.29c1.28-.07,2.24-.11,2.88-.11a22.541,22.541,0,0,1,.58,2.69,12.778,12.778,0,0,1,.18,1.89,64.3,64.3,0,0,0-8.38-1.21c-3.52-.32-5.79-.48-6.79-.48l-2.2-.07v3.48a21.44,21.44,0,0,0,.11,2.63h2.33a85.928,85.928,0,0,1,12.43.74l-.14.69q-4.81.15-8.17.35t-6.25.6a26.37,26.37,0,0,0,1,4.89,39,39,0,0,0,3,6.75,79.806,79.806,0,0,0-8.16.55A26.46,26.46,0,0,1,80.17,61.27Zm24.48,25.92q-.08.5-.15,1.11l-3.53.18v-.53c-1.33.44-2.7.86-4.09,1.26s-2.84.81-4.32,1.21a8.469,8.469,0,0,0-1.06.8l-.69-.06a.78.78,0,0,0,0-.21V90.5h-1l-1.15-.06.7-1q.39-.6.69-1h.76V87.31A20.52,20.52,0,0,0,90.26,81a5.25,5.25,0,0,0-.57.13l-.56.16L88.69,81l1.39-.63c-.13-.18-.25-.38-.39-.61s-.26-.43-.38-.61l3.35-.43.58.78c.3-.06.69-.14,1.19-.22s1.11-.18,1.84-.28l-.48-.18.26-.37c.63.11,1.24.22,1.82.35l.8-.12.73-.13.58.83a22.781,22.781,0,0,1,2.65,2.49,8,8,0,0,1,1.36,2l.55,1.24a1.12,1.12,0,0,1,.11.51l.51-.23.51.27-1,.66a2.86,2.86,0,0,1-.02.87Zm15.77,3.87-1.71-.23-1.28-.2a17.182,17.182,0,0,0-1.82-.27l-2.91-.29.4.66a16.256,16.256,0,0,0-1.88.08c-.72.08-1.53.12-2.46.21l-.36-1.18-1.79-.18v-.35a2.344,2.344,0,0,0,.79-.09l.89-.12q-.11-.59-.18-1.26a12.748,12.748,0,0,1-.07-1.38V86a4.239,4.239,0,0,1,0-.51,9.713,9.713,0,0,1-1,.27,2.88,2.88,0,0,0-.66-2l1.9-.16a13.639,13.639,0,0,1,.4-1.74,14.883,14.883,0,0,1,.65-1.74h-1.55a6.21,6.21,0,0,0-.81,0l-.15-.37,1.09-.15,1.75-.24.26-.41.25-.5h.66v.74c1.24-.08,2.46-.12,3.68-.14h6.48a2.8,2.8,0,0,0,.07.76c.07.25,0,.5.06.72a1.934,1.934,0,0,1,0,.59,3,3,0,0,1,0,.37c-.78-.23-1.5-.42-2.17-.56s-1.31-.26-1.93-.34-1.23-.15-1.84-.18l-1.85-.12-1.26-.07-1.29-.07v3.34h2.26q4,0,7.79.35v.39c-2.08.11-3.92.21-5.5.31s-3,.24-4.4.43a13,13,0,0,0,.38,1.8,17.8,17.8,0,0,0,.78,2.18h6.32l1.2.06,1.22.07,1.11.08Zm14.17-.84h-6.05l-2-.09a1.985,1.985,0,0,0,.09.57,3.572,3.572,0,0,0,.13.54l-.62.08-.42-.61a4.091,4.091,0,0,1-.38-.62l-1-.1-1.2-.07v-.39l.71-.06.57-.06h.27a1.62,1.62,0,0,0,.38,0,16,16,0,0,1-1.16-3.46,18.12,18.12,0,0,1-.4-3.86v-1.5a12.308,12.308,0,0,1,.24-1.61l4.26-.31a16.15,16.15,0,0,0-1.22,4.1,28.821,28.821,0,0,0-.38,4.66V89.3c1.41-.18,2.87-.39,4.38-.62s3.09-.49,4.77-.8Zm2.7.7c-.12-.73-.23-1.49-.31-2.25a19.32,19.32,0,0,1-.13-2.27,17.27,17.27,0,0,1,.42-3.76,12.451,12.451,0,0,1,1.58-3.78l.66.06v1.4a28,28,0,0,0,.44,4.51,27.671,27.671,0,0,0,1.68,5.72ZM153.43,84c-.81,1.34-1.34,2.21-1.61,2.6s-.5.77-.71,1.14-.42.75-.63,1.13a13.3,13.3,0,0,1,.65,2.22l-.62.08-.73-1.05c-.05.15-.1.31-.16.48a5,5,0,0,0-.16.51c-.73-.14-1.44-.29-2.12-.44s-1.3-.3-1.86-.46a16.329,16.329,0,0,1,1-1.46c.36-.49.75-1,1.16-1.47a36.63,36.63,0,0,0-3.2-4.69,11.87,11.87,0,0,0-3.06-2.75c1.55-.75,2.74-1.29,3.57-1.61a11.85,11.85,0,0,1,2.55,3.14,16.28,16.28,0,0,1,1.64,4.34l.47-.51L156,78.39l.62.12Q154.64,82,153.43,84Zm10.24-18.7a39,39,0,0,0,1.38-5.18,24.56,24.56,0,0,0,.41-4.26,24.987,24.987,0,0,0-.21-3.226c-.09-.684-.19-1.364-.31-2a16,16,0,0,0-.51-2.16c-1.42.48-2.84,1-4.26,1.55s-2.83,1.13-4.25,1.74c.59.42,1.18.86,1.75,1.34s1.13.95,1.68,1.44l-6.45,3.11c-.37-.58-.76-1.16-1.17-1.73a19.352,19.352,0,0,0-1.3-1.63l-.55.29a21.069,21.069,0,0,0-2.34,1.21l-1-.48c1-.76,2-1.46,2.95-2.12a45.348,45.348,0,0,0-3.43-3.57c-1.14-1.06-2.29-2-3.43-2.91a26.793,26.793,0,0,0-.31,2.84c-.07,1.08-.13,2.33-.17,3.75v5.45a17,17,0,0,0,.07,2,18.329,18.329,0,0,0,.24,2.53c.12.85.26,1.75.44,2.67l-7.82-2.27q-.08-2.09,1.65-9.37.89-3.51,1.68-5.82A17.289,17.289,0,0,1,140,45c-.91-.56-1.73-1-2.43-1.45l-2-1.08.82-.51c.78.25,1.42.47,1.92.68l1.51.64.9.44c.36-.51.74-1,1.13-1.45l1.13-1.3,1.24.19-.65,1.73c-.21.55-.41,1.15-.59,1.78,2,.83,3.88,1.69,5.6,2.58a57.15,57.15,0,0,1,5.11,3q2.61-1.68,5-3.07c1.6-.93,3.14-1.73,4.6-2.42-.23-.51-.48-1.06-.75-1.64a17.341,17.341,0,0,1-.69-1.65l1.17-.22,2.12,2.6,1.27-.53c.39-.16,1.07-.4,2-.72q1.17,1.22,2.13,2.07a21.178,21.178,0,0,0,1.78,1.45c-1.28.34-2.24.61-2.88.8s-1.24.39-1.79.59a30,30,0,0,1,3.61,8.32,31.27,31.27,0,0,1,.92,8A32,32,0,0,1,163.67,65.3Z" transform="translate(55.14 60.97)" fill="red"/>
    <g id="Circles">
      <g id="Branco">
        <path id="Caminho_5-2" data-name="Caminho 5-2" d="M39.26,86.46a37.089,37.089,0,0,1,5.66,3.43A33,33,0,0,0,12,58.64a34,34,0,0,0-3.64.22A39.9,39.9,0,0,1,9.87,64c.72,0,1.42-.12,2.15-.12A27.78,27.78,0,0,1,39.26,86.46Z" transform="translate(55.14 60.97)" fill="#fff"/>
        <path id="Caminho_7-2" data-name="Caminho 7-2" d="M29.63,83.11a44.111,44.111,0,0,1,4.51,1.21A23.38,23.38,0,0,0,12,68.37H10.51c0,1.22.18,2.46.18,3.71H12A19.68,19.68,0,0,1,29.63,83.11Z" transform="translate(55.14 60.97)" fill="#fff"/>
        <path id="Caminho_9-2" data-name="Caminho 9-2" d="M22.23,82.35a29,29,0,0,1,3.49.16A16.55,16.55,0,0,0,12,75.17H10.53a19.83,19.83,0,0,1-.3,2.67c.58,0,1.18-.09,1.75-.11A13.91,13.91,0,0,1,22.23,82.35Z" transform="translate(55.14 60.97)" fill="#fff"/>
        <path id="Caminho_11-2" data-name="Caminho 11-2" d="M16,82.77c1-.16,2-.26,3-.34A11.54,11.54,0,0,0,11.92,80a14,14,0,0,0-2.13.2c-.14.7-.34,1.37-.52,2a8.69,8.69,0,0,1,6.73.57Z" transform="translate(55.14 60.97)" fill="#fff"/>
        <path id="Caminho_13-2" data-name="Caminho 13-2" d="M12,83.43a8.64,8.64,0,0,0-3.13.62c0,.2-.16.37-.22.57,1.26-.43,2.54-.83,3.85-1.15Z" transform="translate(55.14 60.97)" fill="#fff"/>
        <path id="Caminho_15" data-name="Caminho 15" d="M-28.61,44.35A27.61,27.61,0,0,1-.82,71.74a25.82,25.82,0,0,1-.4,4.89,40.76,40.76,0,0,1,3.81,6.3A33,33,0,0,0-17.9,41,33,33,0,0,0-54,51v2.33a70.383,70.383,0,0,0,.24,7.12A27.74,27.74,0,0,1-28.61,44.35Z" transform="translate(55.14 60.97)" fill="#fff"/>
        <path id="Caminho_17" data-name="Caminho 17" d="M-28.61,48.87A23.39,23.39,0,0,0-50.88,65.14,41.569,41.569,0,0,1-46,63a19.66,19.66,0,0,1,26.6-8.12A19.68,19.68,0,0,1-9.31,68.51a50.329,50.329,0,0,1,4,3.45,23.38,23.38,0,0,0-23.3-23.09Z" transform="translate(55.14 60.97)" fill="#fff"/>
        <path id="Caminho_19" data-name="Caminho 19" d="M-28.61,55.63a16.51,16.51,0,0,0-12.7,6,38.35,38.35,0,0,1,4.64-.76,13.82,13.82,0,0,1,19.05,2.85,37.608,37.608,0,0,1,4.26,2.13A16.57,16.57,0,0,0-28.61,55.63Z" transform="translate(55.14 60.97)" fill="#fff"/>
        <path id="Caminho_21" data-name="Caminho 21" d="M-31.12,60.72a42.879,42.879,0,0,1,8,1.21,11.69,11.69,0,0,0-5.64-1.45A11.45,11.45,0,0,0-31.12,60.72Z" transform="translate(55.14 60.97)" fill="#fff"/>
        <path id="Caminho_23" data-name="Caminho 23" d="M21.79,88.59A32.854,32.854,0,0,0,5.837,92.722,37.16,37.16,0,0,1,6.46,98.48a27.91,27.91,0,0,1,42.67,18,39.689,39.689,0,0,1,5.22-.46A33,33,0,0,0,21.79,88.59Z" transform="translate(55.14 60.97)" fill="#fff"/>
        <path id="Caminho_25" data-name="Caminho 25" d="M21.79,98.26a23.39,23.39,0,0,0-15.53,6c-.13,1.2-.31,2.38-.54,3.53.46.28.94.54,1.4.86a19.62,19.62,0,0,1,32.94,5.74,40.9,40.9,0,0,1,4,3.07l.68-.18A23.38,23.38,0,0,0,21.79,98.26Z" transform="translate(55.14 60.97)" fill="#fff"/>
        <path id="Caminho_27" data-name="Caminho 27" d="M21.79,105.1A16.62,16.62,0,0,0,12,108.39a40,40,0,0,1,6.36-.56h1.5a14.83,14.83,0,0,1,2-.16,13.78,13.78,0,0,1,5.59,1.18,41.591,41.591,0,0,1,7.43,2.57,16.46,16.46,0,0,0-13.09-6.32Z" transform="translate(55.14 60.97)" fill="#fff"/>
        <path id="Caminho_30" data-name="Caminho 30" d="M55.07,122.13a34.229,34.229,0,0,0-6,.58,42.279,42.279,0,0,1,3.27,4.8c.88,0,1.79-.12,2.71-.12a27.8,27.8,0,0,1,27.79,27.8h0a28.3,28.3,0,0,1-1.49,8.93c2-.4,4-.84,5.82-1.34a32.91,32.91,0,0,0-32.12-40.65Z" transform="translate(55.14 60.97)" fill="#fff"/>
        <path id="Caminho_32" data-name="Caminho 32" d="M55.07,131.82h-.46A36.849,36.849,0,0,1,56,135.55,19.61,19.61,0,0,1,74.73,155.9a19.31,19.31,0,0,1-3,9.67c1.51-.16,3-.34,4.52-.56A23.34,23.34,0,0,0,55.11,131.8Z" transform="translate(55.14 60.97)" fill="#fff"/>
        <path id="Caminho_34-2" data-name="Caminho 34" d="M56.79,138.74c.19.89.33,1.81.45,2.71a13.95,13.95,0,0,1,6.3,24.76c1.38,0,2.74-.14,4-.24A16.5,16.5,0,0,0,56.7,138.74Z" transform="translate(55.14 60.97)" fill="#fff"/>
        <path id="Caminho_36-2" data-name="Caminho 36" d="M66.75,155.19a11.7,11.7,0,0,0-9.27-11.45v2A9.81,9.81,0,0,1,55,165a7.931,7.931,0,0,1-1.69-.15c-.22.43-.44.87-.68,1.31,2,0,4,.16,6,.16a11.6,11.6,0,0,0,8.12-11.13Z" transform="translate(55.14 60.97)" fill="#fff"/>
        <path id="Caminho_38-2" data-name="Caminho 38" d="M63.32,155.19a8.31,8.31,0,0,0-5.72-7.84v1.36a6.93,6.93,0,0,1-2.47,13.51h-.34c-.16.42-.36.84-.56,1.26a5.43,5.43,0,0,0,1,.1,8.26,8.26,0,0,0,8.19-8.35h0Z" transform="translate(55.14 60.97)" fill="#fff"/>
        <path id="Caminho_40-2" data-name="Caminho 40" d="M60.89,155.19a5.87,5.87,0,0,0-3.41-5.31v1a4.88,4.88,0,0,1-2,9.15l-.36,1h0A5.83,5.83,0,0,0,60.89,155.19Z" transform="translate(55.14 60.97)" fill="#fff"/>
        <path id="Caminho_42-2" data-name="Caminho 42" d="M58.88,155.19a3.82,3.82,0,0,0-1.6-3.12,1.23,1.23,0,0,1,0,.66,3.19,3.19,0,0,1,.41,4.5h0a3,3,0,0,1-1.57,1,2.78,2.78,0,0,1-.16.63,3.8,3.8,0,0,0,2.92-3.67Z" transform="translate(55.14 60.97)" fill="#fff"/>
        <path id="Caminho_44-2" data-name="Caminho 44" d="M57.62,155.19a2.66,2.66,0,0,0-.58-1.58l-.12.78a2,2,0,0,1-.51,2.29,4.05,4.05,0,0,1-.2.76,2.5,2.5,0,0,0,1.41-2.25Z" transform="translate(55.14 60.97)" fill="#fff"/>
        <path id="Caminho_47-2" data-name="Caminho 47" d="M-46.77,74.59a15.42,15.42,0,0,1,2.35.12A27.73,27.73,0,0,1-7.6,88.21,27.66,27.66,0,0,1-5,99.94a32.21,32.21,0,0,1-.2,3.25A36.272,36.272,0,0,1-.16,104.8,33,33,0,0,0-27.84,67.27a33,33,0,0,0-24.4,6l.3,1.71a42.51,42.51,0,0,1,5.17-.38Z" transform="translate(55.14 60.97)" fill="#fff"/>
        <path id="Caminho_49" data-name="Caminho 49" d="M-9.45,99.94A23.34,23.34,0,0,0-32.8,76.59h-1.47A40,40,0,0,1-21,84.19a20.28,20.28,0,0,1,4,4,39.7,39.7,0,0,1,7.6,13.26,12.38,12.38,0,0,1-.05-1.51Z" transform="translate(55.14 60.97)" fill="#fff"/>
        <path id="Caminho_52" data-name="Caminho 52" d="M-46.77,86.1a27.9,27.9,0,0,1,25.38,16.49,38.287,38.287,0,0,1,5.44-.56A33.05,33.05,0,0,0-46.77,80.78a34.33,34.33,0,0,0-3.81.24c.44,1.73.91,3.42,1.43,5.12C-48.35,86.16-47.57,86.1-46.77,86.1Z" transform="translate(55.14 60.97)" fill="#fff"/>
        <path id="Caminho_54" data-name="Caminho 54" d="M-29.35,104.82c1.16-.46,2.33-.88,3.53-1.23a23.35,23.35,0,0,0-21-13h-.94c.44,1.23.9,2.47,1.37,3.68a19.62,19.62,0,0,1,17.04,10.55Z" transform="translate(55.14 60.97)" fill="#fff"/>
        <path id="Caminho_56" data-name="Caminho 56" d="M-34.51,107.35q1.14-.66,2.31-1.23a16.6,16.6,0,0,0-12.88-8.66c.4,1,.86,2,1.3,2.88a13.94,13.94,0,0,1,9.27,7Z" transform="translate(55.14 60.97)" fill="#fff"/>
        <path id="Caminho_58" data-name="Caminho 58" d="M-38,109.63c.52-.38,1-.76,1.55-1.12a11.76,11.76,0,0,0-6.1-5.48c.48,1,1,2,1.52,3a9.84,9.84,0,0,1,3.03,3.6Z" transform="translate(55.14 60.97)" fill="#fff"/>
        <path id="Caminho_61" data-name="Caminho 61" d="M51.36,147.13a33,33,0,0,0-33-33.06h0a38.159,38.159,0,0,0-4.4.34,41.339,41.339,0,0,1,4,5h.41A27.78,27.78,0,0,1,40,164.68q3,.49,6,.85a32.93,32.93,0,0,0,5.42-18.4Z" transform="translate(55.14 60.97)" fill="#fff"/>
        <path id="Caminho_63" data-name="Caminho 63" d="M41.67,147.13a23.38,23.38,0,0,0-21.19-23.27,41.12,41.12,0,0,1,1.69,4,19.64,19.64,0,0,1,8.16,34.79c1.47.4,3,.74,4.44,1.06a23.13,23.13,0,0,0,6.9-16.58Z" transform="translate(55.14 60.97)" fill="#fff"/>
        <path id="Caminho_65" data-name="Caminho 65" d="M34.85,147.13a16.53,16.53,0,0,0-11.56-15.77c.26,1,.5,2,.68,3.07a14,14,0,0,1-1.3,25.92c1.24.42,2.47.82,3.73,1.2A16.52,16.52,0,0,0,34.85,147.13Z" transform="translate(55.14 60.97)" fill="#fff"/>
        <path id="Caminho_67" data-name="Caminho 67" d="M24.51,139.53a9.75,9.75,0,0,1-2.94,16.81c-.31.78-.67,1.52-1,2.25a11.67,11.67,0,0,0,3.83-21.45C24.45,137.94,24.47,138.74,24.51,139.53Z" transform="translate(55.14 60.97)" fill="#fff"/>
        <path id="Caminho_69" data-name="Caminho 69" d="M26.58,147.13a8.29,8.29,0,0,0-2-5.36,14.017,14.017,0,0,1-.11,2.15A6.86,6.86,0,0,1,23,152.25c-.2.7-.44,1.4-.68,2a8.22,8.22,0,0,0,4.26-7.12Z" transform="translate(55.14 60.97)" fill="#fff"/>
        <path id="Caminho_71" data-name="Caminho 71" d="M24.15,146.91c-.12.7-.2,1.42-.34,2.13a5.61,5.61,0,0,0,.36-2,.22.22,0,0,1-.02-.13Z" transform="translate(55.14 60.97)" fill="#fff"/>
        <path id="Caminho_73" data-name="Caminho 73" d="M18.32,141.29a33,33,0,0,0-9.644-23.373A33,33,0,0,0-14.68,108.23a33,33,0,0,0-20.71,7.28c1,1.45,2,2.89,3,4.3a27.78,27.78,0,0,1,39.11,3.66,27.78,27.78,0,0,1,2.76,31.46c1.6.75,3.19,1.49,4.81,2.19a32.67,32.67,0,0,0,4-15.83Z" transform="translate(55.14 60.97)" fill="#fff"/>
        <path id="Caminho_75" data-name="Caminho 75" d="M8.63,141.29a23.34,23.34,0,0,0-23.31-23.38,23.38,23.38,0,0,0-15,5.43c.78,1,1.56,2,2.36,2.88a19.64,19.64,0,0,1,27.67,2.4,19.64,19.64,0,0,1,2,22.44c1.06.62,2.14,1.25,3.21,1.83a23.18,23.18,0,0,0,3.07-11.6Z" transform="translate(55.14 60.97)" fill="#fff"/>
        <path id="Caminho_77" data-name="Caminho 77" d="M1.8,141.29A16.54,16.54,0,0,0-14.73,124.8a16.65,16.65,0,0,0-10.55,3.83l1.77,2a14,14,0,0,1,19.59,2.45,14,14,0,0,1,1.33,15.08c.74.48,1.45.95,2.21,1.41a16.55,16.55,0,0,0,2.18-8.28Z" transform="translate(55.14 60.97)" fill="#fff"/>
        <path id="Caminho_79" data-name="Caminho 79" d="M-3,141.29a11.67,11.67,0,0,0-3.411-8.265A11.67,11.67,0,0,0-14.67,129.6h0a11.72,11.72,0,0,0-7.26,2.54l1.33,1.35a9.85,9.85,0,0,1,13.8,1.92,9.84,9.84,0,0,1,2,5.82,9.46,9.46,0,0,1-1.1,4.54c.52.36,1,.76,1.55,1.12A11.26,11.26,0,0,0-3,141.29Z" transform="translate(55.14 60.97)" fill="#fff"/>
        <path id="Caminho_81" data-name="Caminho 81" d="M-14.71,133a8.54,8.54,0,0,0-4.81,1.56l1,.92a7,7,0,0,1,9.63,2,7,7,0,0,1,.56,6.61l1,.76a8.19,8.19,0,0,0,.418-6.278,8.19,8.19,0,0,0-4.158-4.722h0a8.5,8.5,0,0,0-3.67-.84Z" transform="translate(55.14 60.97)" fill="#fff"/>
        <path id="Caminho_83" data-name="Caminho 83" d="M-8.89,141.29a5.8,5.8,0,0,0-5.76-5.84h0a5.83,5.83,0,0,0-3,.83l.69.68a5,5,0,0,1,2.3-.6,4.93,4.93,0,0,1,4.9,4.93,4.22,4.22,0,0,1-.26,1.45c.28.2.52.42.78.62a5.65,5.65,0,0,0,.4-2Z" transform="translate(55.14 60.97)" fill="#fff"/>
        <path id="Caminho_85" data-name="Caminho 85" d="M-14.71,137.46a3.72,3.72,0,0,0-1.4.28l.5.42a3.22,3.22,0,0,1,4,2.13,3.77,3.77,0,0,1,.14,1v.32l.52.42a4.57,4.57,0,0,0,0-.74,3.83,3.83,0,0,0-3.77-3.83Z" transform="translate(55.14 60.97)" fill="#fff"/>
        <path id="Caminho_87" data-name="Caminho 87" d="M-14.71,138.72H-15l.68.59a2,2,0,0,1,1.41,1.22l.64.5a2.55,2.55,0,0,0-2.51-2.31Z" transform="translate(55.14 60.97)" fill="#fff"/>
      </g>
      <g id="Vermelho">
        <path id="Caminho_59" data-name="Caminho 59" d="M-38,109.63A9.89,9.89,0,0,0-40.91,106c.74,1.41,1.51,2.81,2.31,4.18Z" transform="translate(55.14 60.97)" fill="red"/>
        <path id="Caminho_60" data-name="Caminho 60" d="M54.09,163.34c.2-.42.4-.84.56-1.26l.4-1.07.36-1c.12-.38.28-.74.42-1.14s0-.42.16-.63a2.49,2.49,0,0,0,.22-.84,2.84,2.84,0,0,1,.2-.76c.2-.78.38-1.53.51-2.29l.12-.78a8.491,8.491,0,0,1,.14-.88,3.64,3.64,0,0,1,0-.66,5.08,5.08,0,0,0,.16-1.17,8.681,8.681,0,0,0,0-1V143.7a14.65,14.65,0,0,0-.3-2.29c-.12-.76-.25-1.82-.45-2.71s-.5-2.14-.82-3.17a36.851,36.851,0,0,0-1.36-3.73,38.891,38.891,0,0,0-2.17-4.33,42.281,42.281,0,0,0-3.27-4.8,41.16,41.16,0,0,0-8.91-8.32,34.9,34.9,0,0,0-5.25-2.91,39.44,39.44,0,0,0-15-3.59h-1.5a40,40,0,0,0-6.36.56c-1.33.22-2.67.52-4,.86a41.55,41.55,0,0,1,6,5.18,38.16,38.16,0,0,1,4.4-.34A33.05,33.05,0,0,1,45.8,165.59c2.29.26,4.6.48,6.94.62.24-.44.46-.88.68-1.31S53.89,163.84,54.09,163.34Z" transform="translate(55.14 60.97)" fill="red"/>
        <path id="Caminho_62" data-name="Caminho 62" d="M46.12,147.13a27.8,27.8,0,0,0-27.8-27.79H18a40.82,40.82,0,0,1,2.57,4.5,23.37,23.37,0,0,1,14.29,39.88c1.68.36,3.37.7,5.09,1a27.67,27.67,0,0,0,6.17-17.59Z" transform="translate(55.14 60.97)" fill="red"/>
        <path id="Caminho_64" data-name="Caminho 64" d="M37.94,147.13a19.61,19.61,0,0,0-15.79-19.28c.42,1.16.8,2.33,1.1,3.51a16.52,16.52,0,0,1,3.11,30.17c1.32.39,2.63.77,4,1.11a19.48,19.48,0,0,0,7.58-15.51Z" transform="translate(55.14 60.97)" fill="red"/>
        <path id="Caminho_66" data-name="Caminho 66" d="M32.22,147.13A14,14,0,0,0,24,134.43c.16.9.32,1.79.42,2.71a11.66,11.66,0,0,1-3.83,21.39c-.16.28-.28.58-.42.86.84.32,1.67.58,2.53.88a14,14,0,0,0,9.52-13.14Z" transform="translate(55.14 60.97)" fill="red"/>
        <path id="Caminho_68" data-name="Caminho 68" d="M28.13,147.13a9.79,9.79,0,0,0-3.619-7.6v2.239a8.2,8.2,0,0,1-.78,11.54h0a7.13,7.13,0,0,1-1.44,1c-.24.68-.48,1.37-.76,2a9.7,9.7,0,0,0,6.6-9.18Z" transform="translate(55.14 60.97)" fill="red"/>
        <path id="Caminho_70" data-name="Caminho 70" d="M25.26,147.13a6.8,6.8,0,0,0-.81-3.21,15,15,0,0,1-.3,3v.22a5.61,5.61,0,0,1-.36,2c-.22,1.08-.5,2.14-.8,3.17a6.84,6.84,0,0,0,2.27-5.18Z" transform="translate(55.14 60.97)" fill="red"/>
        <path id="Caminho_72" data-name="Caminho 72" d="M21.57,156.34c.28-.66.52-1.35.76-2s.48-1.4.68-2c.3-1,.58-2.09.8-3.17.14-.71.22-1.43.34-2.13s.24-2,.3-3a14.018,14.018,0,0,1,.11-2.15v-2.24a13.63,13.63,0,0,0-.13-2.39c-.14-.8-.26-1.81-.42-2.71s-.42-2-.68-3.07a35,35,0,0,0-1.1-3.51,41.121,41.121,0,0,0-1.69-4A40.82,40.82,0,0,0,18,119.5,40,40,0,0,0,8,109.37l-.86-.68c-.46-.32-.94-.58-1.4-.86a41.49,41.49,0,0,0-6-3,36.27,36.27,0,0,0-5.06-1.61q-2-.48-4-.78a39.652,39.652,0,0,0-5.54-.44H-16a38.292,38.292,0,0,0-5.44.56,45.259,45.259,0,0,0-4.43,1,28.791,28.791,0,0,0-3.53,1.23,23.55,23.55,0,0,0-2.85,1.3c-.86.48-1.55.79-2.31,1.23l-2,1.16a18.417,18.417,0,0,0-1.55,1.12l-.72.53c1.08,1.82,2.17,3.59,3.31,5.35a33,33,0,0,1,24.344-7.071A33,33,0,0,1,11,120.69a33,33,0,0,1,3.21,36.45c2,.82,3.87,1.61,5.84,2.33.14-.28.26-.58.42-.86a15.28,15.28,0,0,0,1.15-2.33Z" transform="translate(55.14 60.97)" fill="red"/>
        <path id="Caminho_74" data-name="Caminho 74" d="M13.08,141.29A27.78,27.78,0,0,0-14.71,113.5a27.82,27.82,0,0,0-17.65,6.31c.86,1.2,1.76,2.36,2.67,3.53a23.36,23.36,0,0,1,32.89,3,23.35,23.35,0,0,1,2.32,26.59l4,2a27.49,27.49,0,0,0,3.56-13.64Z" transform="translate(55.14 60.97)" fill="red"/>
        <path id="Caminho_76" data-name="Caminho 76" d="M5,141.29a19.65,19.65,0,0,0-19.62-19.67,19.62,19.62,0,0,0-12.64,4.6l2,2.37a16.5,16.5,0,0,1,23.24,2.17,16.49,16.49,0,0,1,1.64,18.7c.88.56,1.78,1.08,2.69,1.6A19.41,19.41,0,0,0,5,141.29Z" transform="translate(55.14 60.97)" fill="red"/>
        <path id="Caminho_78" data-name="Caminho 78" d="M-.84,141.29A14,14,0,0,0-15,127.57a14,14,0,0,0-8.48,3.05l1.54,1.62a11.66,11.66,0,0,1,16.39,1.83A11.67,11.67,0,0,1-3,141.35h0a11.5,11.5,0,0,1-1.4,5.5l1.86,1.2a13.82,13.82,0,0,0,1.75-6.76Z" transform="translate(55.14 60.97)" fill="red"/>
        <path id="Caminho_80" data-name="Caminho 80" d="M-14.71,131.46a9.69,9.69,0,0,0-6,2l1.11,1.08a8.21,8.21,0,0,1,6.12-1.5A8.21,8.21,0,0,1-8.1,136.32a8.19,8.19,0,0,1,.74,8.46l1.3.91a9.73,9.73,0,0,0-4.11-13.13h-.06a9.82,9.82,0,0,0-4.54-1.1Z" transform="translate(55.14 60.97)" fill="red"/>
        <path id="Caminho_82" data-name="Caminho 82" d="M-14.71,134.31a6.85,6.85,0,0,0-3.83,1.16l.84.79a5.8,5.8,0,0,1,4.417-.669A5.8,5.8,0,0,1-9.7,138.26a5.78,5.78,0,0,1,.84,3.06,5.65,5.65,0,0,1-.4,2l.94.7a6.9,6.9,0,0,0-3.58-9.08,7,7,0,0,0-2.81-.63Z" transform="translate(55.14 60.97)" fill="red"/>
        <path id="Caminho_84" data-name="Caminho 84" d="M-14.71,136.3a5,5,0,0,0-2.3.6l.9.78a3.72,3.72,0,0,1,1.4-.28,3.82,3.82,0,0,1,3.8,3.83,4.57,4.57,0,0,1,0,.74l.92.71a4.22,4.22,0,0,0,.26-1.45,4.94,4.94,0,0,0-4.92-4.93Z" transform="translate(55.14 60.97)" fill="red"/>
        <path id="Caminho_86" data-name="Caminho 86" d="M-14.71,138a4.451,4.451,0,0,0-.9.14l.68.6h.22a2.54,2.54,0,0,1,2.51,2.35l.7.54v-.32A3.25,3.25,0,0,0-14.69,138h0Z" transform="translate(55.14 60.97)" fill="red"/>
        <path id="Caminho_88" data-name="Caminho 88" d="M-14.25,139.35l1.41,1.22A2,2,0,0,0-14.25,139.35Z" transform="translate(55.14 60.97)" fill="red"/>
        <path id="Caminho_50" data-name="Caminho 50" d="M-21,84.25a41.53,41.53,0,0,1,4,4A20.28,20.28,0,0,0-21,84.25Z" transform="translate(55.14 60.97)" fill="red"/>
        <path id="Caminho_51" data-name="Caminho 51" d="M-46.77,80.78a33,33,0,0,1,30.88,21.27h1.24a41.6,41.6,0,0,1,5.458.36,3.94,3.94,0,0,0-.338-1A39.67,39.67,0,0,0-21.11,84.17a39.54,39.54,0,0,0-23.41-9.6c-.78,0-1.56-.11-2.35-.11a40.591,40.591,0,0,0-5.17.37c.4,2,.86,4.11,1.36,6.13,1.33-.14,2.6-.22,3.83-.24Z" transform="translate(55.14 60.97)" fill="red"/>
        <path id="Caminho_53" data-name="Caminho 53" d="M-25.86,103.59c1.46-.4,2.93-.74,4.43-1A27.91,27.91,0,0,0-46.89,86.1a15.751,15.751,0,0,0-2.38.12c.46,1.47.93,2.93,1.44,4.37h.94a23.37,23.37,0,0,1,21.03,13Z" transform="translate(55.14 60.97)" fill="red"/>
        <path id="Caminho_55" data-name="Caminho 55" d="M-32.2,106.12c.94-.48,1.88-.9,2.85-1.3a19.64,19.64,0,0,0-17-10.55c.42,1.06.82,2.14,1.28,3.19a16.6,16.6,0,0,1,12.87,8.66Z" transform="translate(55.14 60.97)" fill="red"/>
        <path id="Caminho_57" data-name="Caminho 57" d="M-36.41,108.51c.64-.42,1.32-.8,2-1.16a14,14,0,0,0-9.25-6.94c.4.9.81,1.82,1.25,2.7a11.72,11.72,0,0,1,6,5.4Z" transform="translate(55.14 60.97)" fill="red"/>
        <path id="Caminho_45-2" data-name="Caminho 45" d="M57.08,155.19a2,2,0,0,0-.16-.8c-.13.76-.31,1.51-.51,2.29A2,2,0,0,0,57.08,155.19Z" transform="translate(55.14 60.97)" fill="red"/>
        <path id="Caminho_46-2" data-name="Caminho 46" d="M-32.82,66.82a33.06,33.06,0,0,1,33.06,33h0a33,33,0,0,1-.4,4.86,42.56,42.56,0,0,1,6,3c.23-1.15.41-2.33.54-3.53.14-1.41.24-2.83.24-4.28V98.42A37.16,37.16,0,0,0,6,92.66,40.65,40.65,0,0,0,4.29,86.5c-.44-1.24-1-2.43-1.52-3.63a40.57,40.57,0,0,0-8-11,50.332,50.332,0,0,0-4-3.45,44.507,44.507,0,0,0-4-2.65,37.611,37.611,0,0,0-4.26-2.13,41.3,41.3,0,0,0-13.5-3h-1.78a27.59,27.59,0,0,0-3.85.2,38.349,38.349,0,0,0-4.64.76A42.2,42.2,0,0,0-45.88,63a41.568,41.568,0,0,0-4.9,2.11c-.82.42-1.6.88-2.37,1.36.27,2.29.61,4.59,1,6.84a32.75,32.75,0,0,1,19.3-6.44Z" transform="translate(55.14 60.97)" fill="red"/>
        <path id="Caminho_48-2" data-name="Caminho 48" d="M-5,99.94A27.74,27.74,0,0,0-32.78,72.22a27.86,27.86,0,0,0-11.64,2.57,40.5,40.5,0,0,1,10.15,2h1.45A23.34,23.34,0,0,1-9.45,100.12h0v1.47c0,.5.24.66.34,1q2,.3,4,.78a28.37,28.37,0,0,0,0-3.45Z" transform="translate(55.14 60.97)" fill="red"/>
        <path id="Caminho_29" data-name="Caminho 29" d="M60.77,116.37a39.482,39.482,0,0,0-5.64-.46h-.76a39.688,39.688,0,0,0-5.22.46,43.645,43.645,0,0,0-4.35.91l-.68.18a40.26,40.26,0,0,1,5,5.25,32.91,32.91,0,0,1,38.1,40.07q3.405-.87,6.72-2a37.81,37.81,0,0,0,.46-5.62,39.26,39.26,0,0,0-33.63-38.79Z" transform="translate(55.14 60.97)" fill="red"/>
        <path id="Caminho_31" data-name="Caminho 31" d="M55.07,127.39a20.411,20.411,0,0,0-2.71.12,39.48,39.48,0,0,1,2.25,4.33h.54A23.34,23.34,0,0,1,76.3,165.05c1.74-.27,3.43-.57,5.15-.91a28.3,28.3,0,0,0,1.49-8.93,27.91,27.91,0,0,0-27.67-27.92h0Z" transform="translate(55.14 60.97)" fill="red"/>
        <path id="Caminho_33-2" data-name="Caminho 33" d="M55.89,135.57a32.711,32.711,0,0,1,.82,3.17A16.5,16.5,0,0,1,67.55,166a36.361,36.361,0,0,0,4.15-.38,19.63,19.63,0,0,0-15.81-30Z" transform="translate(55.14 60.97)" fill="red"/>
        <path id="Caminho_35-2" data-name="Caminho 35" d="M69,155.19a14,14,0,0,0-11.79-13.74c.12.76.22,1.51.3,2.29a11.68,11.68,0,0,1,1.14,22.57H59c1.51,0,3,0,4.46-.12a13.76,13.76,0,0,0,5.49-11Z" transform="translate(55.14 60.97)" fill="red"/>
        <path id="Caminho_37-2" data-name="Caminho 37" d="M57.6,147.35a8.23,8.23,0,0,1-2.53,16.09,5.432,5.432,0,0,1-1-.1c-.22.5-.47,1-.71,1.5a7.931,7.931,0,0,0,1.69.15,9.81,9.81,0,0,0,2.49-19.28v1.42a.81.81,0,0,1,0,.22Z" transform="translate(55.14 60.97)" fill="red"/>
        <path id="Caminho_39-2" data-name="Caminho 39" d="M62,155.19a7,7,0,0,0-4.47-6.48v1.17A5.82,5.82,0,0,1,55.13,161h0c-.14.36-.24.72-.4,1.07h.42A6.93,6.93,0,0,0,62,155.19Z" transform="translate(55.14 60.97)" fill="red"/>
        <path id="Caminho_41-2" data-name="Caminho 41" d="M60,155.19a5,5,0,0,0-2.54-4.29,11.349,11.349,0,0,1-.16,1.17,3.82,3.82,0,0,1,.9,5.31,3.69,3.69,0,0,1-2.35,1.53c-.14.4-.3.76-.42,1.14A4.87,4.87,0,0,0,60,155.19Z" transform="translate(55.14 60.97)" fill="red"/>
        <path id="Caminho_43-2" data-name="Caminho 43" d="M58.32,155.19a3.24,3.24,0,0,0-1.14-2.46,1.9,1.9,0,0,1-.14.88,2.66,2.66,0,0,1,.58,1.58,2.5,2.5,0,0,1-1.41,2.25,2.49,2.49,0,0,1-.22.84,3.25,3.25,0,0,0,2.33-3.09Z" transform="translate(55.14 60.97)" fill="red"/>
        <path id="Caminho_4-2" data-name="Caminho 4-2" d="M12,58.64A33,33,0,0,1,45,89.89a39.779,39.779,0,0,1,6.16,5.58c.12-1.24.2-2.51.2-3.79A39.06,39.06,0,0,0,12.58,52.3h0a41.469,41.469,0,0,0-6.94.56,36.5,36.5,0,0,1,2.7,6A34.76,34.76,0,0,1,12,58.64Z" transform="translate(55.14 60.97)" fill="red"/>
        <path id="Caminho_6-2" data-name="Caminho 6-2" d="M34.14,84.32a41.618,41.618,0,0,1,5.12,2.14A27.78,27.78,0,0,0,12,63.89,12.861,12.861,0,0,0,9.87,64c.3,1.43.52,2.89.68,4.38H12A23.38,23.38,0,0,1,34.14,84.32Z" transform="translate(55.14 60.97)" fill="red"/>
        <path id="Caminho_8-2" data-name="Caminho 8-2" d="M25.72,82.47c1.32.14,2.63.34,4,.6A19.66,19.66,0,0,0,12.06,72H10.75a21.19,21.19,0,0,1-.16,3.09H12a16.55,16.55,0,0,1,13.72,7.38Z" transform="translate(55.14 60.97)" fill="red"/>
        <path id="Caminho_10-2" data-name="Caminho 10-2" d="M19.12,82.47c.88,0,1.78-.14,2.67-.14h.44A14,14,0,0,0,12,77.8a10.3,10.3,0,0,0-1.75.12c-.12.78-.22,1.56-.38,2.3A14,14,0,0,1,12,80a11.76,11.76,0,0,1,7.12,2.47Z" transform="translate(55.14 60.97)" fill="red"/>
        <path id="Caminho_12-2" data-name="Caminho 12-2" d="M12.48,83.47c1.18-.28,2.38-.5,3.59-.68a9.46,9.46,0,0,0-4-.94,9.911,9.911,0,0,0-2.65.42c-.16.6-.3,1.2-.48,1.78a8.64,8.64,0,0,1,3.13-.62Z" transform="translate(55.14 60.97)" fill="red"/>
        <path id="Caminho_14-2" data-name="Caminho 14-2" d="M-28.61,39.1A33,33,0,0,1,4.45,72,33,33,0,0,1,2.59,83c.56,1.2,1.08,2.39,1.52,3.63a46.658,46.658,0,0,1,4.52-2A2.32,2.32,0,0,1,8.85,84c.18-.58.32-1.18.48-1.78s.38-1.37.52-2,.26-1.52.38-2.3.24-1.77.3-2.67.16-2,.16-3.09h0a23,23,0,0,0-.18-3.71c-.18-1.21-.38-2.95-.68-4.38A39.9,39.9,0,0,0,8.34,59a36.5,36.5,0,0,0-2.7-6A39.3,39.3,0,0,0-47.79,37.87a42.52,42.52,0,0,0-5.64,3.85c-.32,3.07-.48,6.18-.54,9.29A33,33,0,0,1-28.61,39.1Z" transform="translate(55.14 60.97)" fill="red"/>
        <path id="Caminho_16" data-name="Caminho 16" d="M-28.61,48.87A23.4,23.4,0,0,1-5.2,72a37.28,37.28,0,0,1,4,4.71A27.78,27.78,0,0,0-24.33,45,27.78,27.78,0,0,0-53.71,60.42q.21,3,.54,6c.77-.48,1.55-.94,2.37-1.36A23.39,23.39,0,0,1-28.61,48.87Z" transform="translate(55.14 60.97)" fill="red"/>
        <path id="Caminho_18" data-name="Caminho 18" d="M-28.61,52.56A19.708,19.708,0,0,0-46,63,42.2,42.2,0,0,1-41.33,61.65a16.51,16.51,0,0,1,23.25-2A16.27,16.27,0,0,1-13.4,66a44.514,44.514,0,0,1,4,2.65A19.67,19.67,0,0,0-28.61,52.56Z" transform="translate(55.14 60.97)" fill="red"/>
        <path id="Caminho_20" data-name="Caminho 20" d="M-28.61,58.25a14.11,14.11,0,0,0-8,2.59c1.28-.12,2.56-.2,3.85-.2h1.8a12.36,12.36,0,0,1,2.43-.24,11.72,11.72,0,0,1,5.64,1.45,45.841,45.841,0,0,1,5.35,1.76,14,14,0,0,0-11.07-5.36Z" transform="translate(55.14 60.97)" fill="red"/>
        <path id="Caminho_22" data-name="Caminho 22" d="M44.92,89.89a37.089,37.089,0,0,0-5.66-3.43,41.62,41.62,0,0,0-5.12-2.14,44.111,44.111,0,0,0-4.51-1.21q-2-.39-4-.6a30.588,30.588,0,0,0-3.49-.16H21.7a17.071,17.071,0,0,0-2.67.14c-.88.14-2,.18-3,.34s-2.41.4-3.59.68-2.59.72-3.85,1.15a46.66,46.66,0,0,0-4.52,2,40.65,40.65,0,0,1,1.69,6.16A33,33,0,0,1,54.23,116H55a39.358,39.358,0,0,1,5.64.46A39.16,39.16,0,0,0,51,95.61a40,40,0,0,0-6-5.72Z" transform="translate(55.14 60.97)" fill="red"/>
        <path id="Caminho_24" data-name="Caminho 24" d="M21.79,93.84A27.72,27.72,0,0,0,6.42,98.42v1.46a25.55,25.55,0,0,1-.24,4.28,23.31,23.31,0,0,1,38.46,13.12,43.648,43.648,0,0,1,4.35-.91,27.91,27.91,0,0,0-27.2-22.53Z" transform="translate(55.14 60.97)" fill="red"/>
        <path id="Caminho_26" data-name="Caminho 26" d="M21.79,102a19.52,19.52,0,0,0-14.67,6.72l.86.62c1.31-.34,2.65-.64,4-.86a16.46,16.46,0,0,1,22.89,3,34.79,34.79,0,0,1,5.25,2.89A19.67,19.67,0,0,0,21.79,102Z" transform="translate(55.14 60.97)" fill="red"/>
        <path id="Caminho_28" data-name="Caminho 28" d="M21.79,107.73a14.83,14.83,0,0,0-2,.16,40.08,40.08,0,0,1,7.56,1,13.72,13.72,0,0,0-5.56-1.16Z" transform="translate(55.14 60.97)" fill="red"/>
      </g>
    </g>
  </g>
</svg>
