<svg id="Camada_1" data-name="Camada 1" xmlns="http://www.w3.org/2000/svg" viewBox="0 0 177.43 113.43"><defs><style>.cls-1{fill:#fff;}.cls-2{fill:red;}</style></defs><title>logo2</title><circle class="cls-1" cx="56.69" cy="56.69" r="56.55"/><path class="cls-2" d="M180.31,162l-.8,0-.8,0-.16-.58,1.81-.4a27.15,27.15,0,0,1,.88-4.75,24.62,24.62,0,0,1,2.8-6.16l.94.1c0,.41-.07.9-.09,1.45s0,1.15,0,1.78c0,1,0,2.06.08,3.16s.17,2.36.35,3.8c1.07-.11,2.1-.19,3.11-.26l2.77-.16c.59,0,1.22-.07,1.9-.08l2.11,0,1,0h1a25.94,25.94,0,0,1,1-4.79,20,20,0,0,1,2.11-4.62l1,.13A27.27,27.27,0,0,0,201,155c0,.85,0,1.67.08,2.45s.14,1.64.25,2.55l1.7.07a16.33,16.33,0,0,1,1.7.16l-1.86,3.23-1.1-.22c.22,1.11.48,2.24.8,3.39s.66,2.34,1.07,3.53l-6.21.66c-.18-1.07-.32-2.13-.41-3.19s-.14-2.13-.14-3.22v-1c0-.27,0-.61.06-1-.7-.09-1.38-.16-2-.21l-2-.18c-1.1-.09-2.25-.15-3.46-.2H188.3l-1.18,0-.85,0h-.75c.19,1.27.4,2.54.64,3.83a33,33,0,0,0,1.07,4.18l-5.82,1.4a20.21,20.21,0,0,1-.83-3.93c-.14-1.34-.24-2.83-.27-4.46Z" transform="translate(-58.45 -127.48)"/><path class="cls-2" d="M207.6,170.76c-.18-1.24-.34-2.5-.47-3.79a37.87,37.87,0,0,1-.19-3.82,32.48,32.48,0,0,1,.63-6.32,21.82,21.82,0,0,1,2.39-6.36l1,.1a9.79,9.79,0,0,0-.06,1.11v1.24a52.15,52.15,0,0,0,.66,7.6,51.22,51.22,0,0,0,2.53,9.62Z" transform="translate(-58.45 -127.48)"/><path class="cls-2" d="M164.29,155.92c-.22-.37-.42-.75-.65-1.11l-1,.27A16.22,16.22,0,0,1,164.29,155.92Z" transform="translate(-58.45 -127.48)"/><path class="cls-2" d="M142.2,185.25c-.66,1.05-1.35,2.21-2.06,3.5a23.67,23.67,0,0,0-1.68,3.69c1.1-.07,2.24-.17,3.41-.31s2.29-.27,3.35-.38c-.44-1.06-.93-2.18-1.48-3.35S142.67,186.19,142.2,185.25Z" transform="translate(-58.45 -127.48)"/><path class="cls-2" d="M168,162.74a18.89,18.89,0,0,1,2.41,3.94c-.38.14-.8.26-1.22.38.24.75.45,1.51.66,2.27a13.61,13.61,0,0,0,1.39-.66l.33.85s.07.1.22.17.22.11.22.13l4.55-1.28a7,7,0,0,0-.24-.86c-.09-.25-.2-.53-.31-.84a5.7,5.7,0,0,0-.38-.88l1.59-1.34-.71-.39-.77.31-.82.34c-.3-.32-.71-.77-1.24-1.32s-1.22-1.22-2.06-2c-1.57-1.44-3.15-2.74-4.72-3.92a28.85,28.85,0,0,0-2.62-1.74,58.18,58.18,0,0,1,3,6C167.53,162.16,167.77,162.45,168,162.74Z" transform="translate(-58.45 -127.48)"/><path class="cls-2" d="M165.67,154.33c1-.2,2-.35,2.94-.46a24,24,0,0,1,3.13-.2,45.65,45.65,0,0,1,5.38.4L175.37,150c-1.29.13-2.58.3-3.88.49s-2.6.46-3.92.77a38.75,38.75,0,0,0-3.95,1.19c-.4.15-.78.32-1.17.48.41.61.81,1.23,1.19,1.87C164.34,154.63,165,154.46,165.67,154.33Z" transform="translate(-58.45 -127.48)"/><path class="cls-2" d="M181.52,185.51c.44-.17.91-.35,1.42-.52s1.28-.42,2.31-.72a17.14,17.14,0,0,1-1.43-1.29c-.51-.51-1.08-1.13-1.7-1.85-.77.29-1.31.5-1.62.64l-1,.47-1.7-2.32-.93.2a15.22,15.22,0,0,0,.55,1.47q.33.78.6,1.47c-1.17.61-2.4,1.33-3.68,2.16-.82.53-1.68,1.11-2.55,1.72a58.69,58.69,0,0,1-.78,6.94l3.83-2.06q-.66-.66-1.35-1.29c-.46-.43-.92-.82-1.4-1.2,1.14-.54,2.27-1.06,3.41-1.55s2.27-.95,3.4-1.39a17.65,17.65,0,0,1,.41,1.93c.09.61.17,1.22.25,1.83a25.27,25.27,0,0,1,.16,2.88,23.92,23.92,0,0,1-.33,3.8,37.2,37.2,0,0,1-1.09,4.63,23.09,23.09,0,0,0,6.86-1.34,30.76,30.76,0,0,0-.74-7.17A28.33,28.33,0,0,0,181.52,185.51Z" transform="translate(-58.45 -127.48)"/><path class="cls-2" d="M188.93,201.1c-.18-1.24-.34-2.51-.47-3.79a38.06,38.06,0,0,1-.19-3.83,32.56,32.56,0,0,1,.63-6.32,22,22,0,0,1,2.39-6.36l1,.1a9.79,9.79,0,0,0-.06,1.11v1.25a52.14,52.14,0,0,0,.66,7.59,51.5,51.5,0,0,0,2.53,9.63Z" transform="translate(-58.45 -127.48)"/><path class="cls-2" d="M199.2,199.37l-1.81-.13v-.66l1.07-.1.85-.09a1.3,1.3,0,0,1,.41,0,3.81,3.81,0,0,0,.58-.05,28.67,28.67,0,0,1-1.76-5.83,34.35,34.35,0,0,1-.61-6.49q0-1.22.09-2.52a20.76,20.76,0,0,1,.35-2.71l6.43-.52a29,29,0,0,0-1.84,6.89,53.63,53.63,0,0,0-.58,7.85v1.58c0,.47,0,1,.06,1.55,2.12-.3,4.32-.65,6.59-1s4.67-.83,7.19-1.35l-1.59,4.21-6.81-.1c-.73,0-1.5,0-2.31-.08l-3-.14c0,.3.08.62.13,1a7.66,7.66,0,0,0,.2.9l-.94.13c-.22-.37-.43-.71-.63-1a8.53,8.53,0,0,1-.57-1.05Z" transform="translate(-58.45 -127.48)"/><path class="cls-2" d="M220.39,180.09q1.49,3,2.89,5.31a34.86,34.86,0,0,0,3.21,4.49q2.25-4,8.51-9.8l.88.29c-.81,1.18-1.56,2.37-2.25,3.59s-1.36,2.47-2,3.73a28.87,28.87,0,0,0-1.45,3.12,13.78,13.78,0,0,0-.69,2.21c.47.5.93,1,1.37,1.4s.88.86,1.32,1.28l-.77.36-1-.62-.39-.23-.22-.13-.22-.13-.33-.23a26,26,0,0,0-.16,2.84c0,.39,0,.83,0,1.31s0,.93.08,1.37a18.19,18.19,0,0,1-6.37.85,13.93,13.93,0,0,1,.55-4.61,22.64,22.64,0,0,1,1.81-4.35c-.88-.63-1.75-1.29-2.61-2s-1.65-1.39-2.39-2.09a28,28,0,0,1-2-2.27c-.69-.86-1.41-1.84-2.14-2.93a13.23,13.23,0,0,1,1.65-1.16C218.38,181.26,219.29,180.72,220.39,180.09Z" transform="translate(-58.45 -127.48)"/><path class="cls-2" d="M161.75,183c1.61.75,3.1,1.51,4.47,2.31a46.65,46.65,0,0,1,4.09,2.66l1.46-1c0-.92.07-1.84.07-2.76a56.79,56.79,0,0,0-2-14.85,16.3,16.3,0,0,1-3.39,1,18.22,18.22,0,0,1-5.11.46c-.77-.07-1.53-.15-2.28-.26s-1.49-.23-2.22-.36l2.31-3.11a30.49,30.49,0,0,0,5.32.59,19,19,0,0,0,3.13-.26c.56-.1,1.08-.21,1.58-.34q-.84-2.66-1.92-5.18a25.41,25.41,0,0,0-2.62-2.55c-1.17-1-2.13-1.83-2.88-2.42s-1.28-1-1.57-1.18l-.85.26-1.07.35-1,.32-.68.22,2.08-1.87q-.37-.19-1-.57l-1.48-.93,3.52.69a27.86,27.86,0,0,1,2.73-1.26,56.7,56.7,0,0,0-68.81-21.23A14,14,0,1,1,72.1,147.3,56.68,56.68,0,1,0,171,193.88l-1.34.72c-.29-.53-.6-1-.93-1.56s-.68-1-1-1.45l-.44.26a15,15,0,0,0-1.87,1.08l-.77-.43c.81-.67,1.6-1.3,2.36-1.89a39.32,39.32,0,0,0-2.74-3.19c-.92-.95-1.83-1.81-2.75-2.6-.11.72-.19,1.57-.24,2.54s-.1,2.08-.14,3.35v4.87c0,.69,0,1.29,0,1.79,0,.74.1,1.5.2,2.26s.21,1.56.35,2.38l-6.26-2a48.4,48.4,0,0,1,1.32-8.37c.48-2.09.92-3.82,1.35-5.19a16.78,16.78,0,0,1,1.23-3.14q-1.1-.75-2-1.29l-1.56-1,.66-.45c.62.21,1.13.42,1.53.6l1.21.57.72.39q.44-.67.9-1.29c.31-.4.61-.79.91-1.16l1,.17c-.19.54-.36,1.06-.53,1.55S161.89,182.43,161.75,183Zm-46.29,5.56c.33,0,.65,0,1,0h.9a62.71,62.71,0,0,1,9.94.65l-.11.62q-3.84.14-6.53.31c-1.8.12-3.46.3-5,.54a25.55,25.55,0,0,0,.82,4.36,35.71,35.71,0,0,0,2.37,6,57.59,57.59,0,0,0-6.54.49,28.48,28.48,0,0,1-.8-3.66,27.76,27.76,0,0,1-.3-4.15,6.93,6.93,0,0,0,0-.93,3.06,3.06,0,0,1,0-1l-1,.55-.88-3.62.5,0,.54,0a2,2,0,0,1,1,.1s.07-.07.22-.1q.27-1.36.6-2.79a18,18,0,0,1,.93-2.86c-.91,0-1.65-.07-2.22-.07s-1,0-1.29,0l-.16-.62,4.22-.72c0-.05,0-.08,0-.12s0-.07,0-.11l.77-1.57,1,.07c0,.3,0,.55,0,.75a4,4,0,0,1,0,.75c.84-.09,1.83-.18,3-.26s2.45-.18,4-.26l4-.27q1.55-.09,2.31-.09a23.26,23.26,0,0,1,.47,2.4,13.27,13.27,0,0,1,.13,1.68,48.51,48.51,0,0,0-6.7-1.08c-2.81-.28-4.63-.42-5.43-.42l-1.76-.07v.82c0,.76,0,1.52,0,2.29A18.82,18.82,0,0,0,115.46,188.55ZM128.2,166a8.64,8.64,0,0,1,.38.88l.3.84a6.89,6.89,0,0,1,.25.86l-4.56,1.28s-.07-.07-.22-.13-.22-.12-.22-.17l-.33-.85a15.77,15.77,0,0,1-4.77,1.67,18.25,18.25,0,0,1-5.11.46c-.77-.07-1.53-.15-2.28-.26s-1.49-.23-2.22-.36l2.3-3.11a30.49,30.49,0,0,0,5.33.59,19.16,19.16,0,0,0,3.13-.26,16.33,16.33,0,0,0,2.8-.72,18.92,18.92,0,0,0-2.42-3.94,25,25,0,0,0-3.35-3.41c-1.17-1-2.13-1.83-2.88-2.42s-1.27-1-1.56-1.18l-.86.26-1.07.35-1,.32-.69.22,2.09-1.87q-.39-.19-1-.57l-1.48-.93,3.51.69a30.59,30.59,0,0,1,3.9-1.74,40.33,40.33,0,0,1,4-1.19c1.32-.31,2.63-.57,3.93-.77s2.59-.36,3.87-.49l1.76,4.06a45.8,45.8,0,0,0-5.38-.4,24,24,0,0,0-3.13.2c-1,.11-2,.26-2.94.46s-2,.44-3,.75a20.81,20.81,0,0,1,4.28,2.58c1.58,1.18,3.15,2.48,4.73,3.92.84.76,1.53,1.42,2.06,2s.94,1,1.23,1.32l.83-.34.76-.31.72.39Zm24.46,30.58c.31.82.56,1.49.74,2a5.51,5.51,0,0,0,.44,1.14l-5.77,2c-.22-1.2-.49-2.48-.82-3.84s-.7-2.63-1.1-3.81c-.84,0-1.69.07-2.55.07h-4.28c-.43,0-.89,0-1.4,0a13,13,0,0,0-.69,2.52c-.17.91-.34,1.8-.52,2.65,0,.24-.09.51-.17.83s-.13.59-.16.83l-6.26.26q.33-1,.66-2c.22-.68.44-1.36.68-2s.48-1.31.72-1.91a13.7,13.7,0,0,1,.74-1.62c-.55-.11-1-.21-1.38-.32s-.69-.22-1-.33l.27-.56,2.75.2q1.65-2.61,3.51-5.21a26.11,26.11,0,0,1,4-4.43,17.06,17.06,0,0,0-1.08-1.67q-.47-.62-1-1.17l.94-.3.6.51.36.29a1.19,1.19,0,0,0,.25.18l.22.17.52.31a5.64,5.64,0,0,1,.57.44l1.16-.82.82-.56c.26-.17.51-.37.77-.58l.93.32-.55.59-1,1.11a8.56,8.56,0,0,0-.88,1.15,32.88,32.88,0,0,1,2.8,3.49c.88,1.27,1.66,2.44,2.36,3.53l.88,1.28,4.44-.69-2.08,3.27a1.29,1.29,0,0,1-.66.16A26,26,0,0,1,152.66,196.54Zm1.76-41.94c-.42,1.41-.78,2.71-1.07,3.91v0a23.68,23.68,0,0,0-.66,3.56c-.15,1.27-.24,2.51-.28,3.73l1.4-.28c.42-.07.82-.16,1.18-.24l.55.49c-.55.24-1.09.48-1.62.73s-1,.47-1.45.64c0,.5,0,1,.05,1.42s.09.89.17,1.33l-.94.13c-.25-.44-.47-.81-.66-1.12a8.26,8.26,0,0,1-.54-1.11,22.31,22.31,0,0,1-2.72.79c-1,.22-1.93.4-2.89.55a47.13,47.13,0,0,1-5,.56c.25.54.45,1,.6,1.24l-.82.29c-.48-.37-.85-.66-1.1-.89a7.93,7.93,0,0,1-.71-.71h-.11c-.78,0-1.58-.1-2.41-.18a22.37,22.37,0,0,1-2.53-.37,10.42,10.42,0,0,1-.47-.95,2.3,2.3,0,0,1-.2-.91,2.13,2.13,0,0,1,.2-.82,8.34,8.34,0,0,1,.47-.95c.19,0,.43.12.75.21a3.78,3.78,0,0,0,.53.15l.77.2a33.46,33.46,0,0,1-2.55-13.14v-1c0-.39,0-.75,0-1.08.89-.19,1.92-.35,3.08-.48s2.41-.23,3.73-.3c-.4,1-.75,1.91-1,2.79a23,23,0,0,0-.66,2.41c-.11.58-.19,1.23-.25,1.92s-.08,1.43-.08,2.19v1q.11,1.41.33,2.91c.15,1,.33,2,.55,3.14,1.46.13,3.06.19,4.78.19,1.06,0,2.16,0,3.29,0s2.38-.1,3.74-.21a19.56,19.56,0,0,1-1-3.61,24.15,24.15,0,0,1-.38-3.61,33.26,33.26,0,0,1,1.15-8.2l.39-.26a16.93,16.93,0,0,1,1.78-.22c.57,0,1.14,0,1.73,0,.33,0,.7,0,1.13,0l1.29.12A38.43,38.43,0,0,0,154.42,154.6Z" transform="translate(-58.45 -127.48)"/><g id="Circles"><g id="Branco"><path id="Caminho_5-2" data-name="Caminho 5-2" class="cls-1" d="M105.21,200.85a19,19,0,0,1,2.84,1.72,16.56,16.56,0,0,0-16.5-15.67,16,16,0,0,0-1.83.11,19.49,19.49,0,0,1,.75,2.58c.36,0,.71-.06,1.08-.06A13.93,13.93,0,0,1,105.21,200.85Z" transform="translate(-58.45 -127.48)"/><path id="Caminho_7-2" data-name="Caminho 7-2" class="cls-1" d="M100.38,199.17a21.49,21.49,0,0,1,2.26.61,11.71,11.71,0,0,0-11.11-8h-.74c0,.61.09,1.23.09,1.86h.65a9.86,9.86,0,0,1,8.85,5.53Z" transform="translate(-58.45 -127.48)"/><path id="Caminho_9-2" data-name="Caminho 9-2" class="cls-1" d="M96.67,198.79a14.55,14.55,0,0,1,1.75.08,8.29,8.29,0,0,0-6.89-3.68H90.8a10,10,0,0,1-.15,1.34c.29,0,.59-.05.88-.06A7,7,0,0,1,96.67,198.79Z" transform="translate(-58.45 -127.48)"/><path id="Caminho_11-2" data-name="Caminho 11-2" class="cls-1" d="M93.55,199c.51-.08,1-.13,1.53-.17a5.79,5.79,0,0,0-3.58-1.23,7.6,7.6,0,0,0-1.07.1c-.07.35-.17.69-.26,1A4.37,4.37,0,0,1,93.55,199Z" transform="translate(-58.45 -127.48)"/><path id="Caminho_13-2" data-name="Caminho 13-2" class="cls-1" d="M91.55,199.33a4.43,4.43,0,0,0-1.57.31c0,.1-.08.19-.11.29.63-.22,1.27-.42,1.93-.58Z" transform="translate(-58.45 -127.48)"/><path id="Caminho_15" data-name="Caminho 15" class="cls-1" d="M71.17,179.73a13.85,13.85,0,0,1,13.94,13.74,13.43,13.43,0,0,1-.2,2.45,20.74,20.74,0,0,1,1.91,3.16,16.56,16.56,0,0,0-28.37-16v1.17c0,1.2,0,2.38.12,3.57a13.92,13.92,0,0,1,12.6-8.09Z" transform="translate(-58.45 -127.48)"/><path id="Caminho_17" data-name="Caminho 17" class="cls-1" d="M71.17,182A11.73,11.73,0,0,0,60,190.16a20.49,20.49,0,0,1,2.46-1.06,9.86,9.86,0,0,1,18.39,2.75,23.63,23.63,0,0,1,2,1.73A11.72,11.72,0,0,0,71.17,182Z" transform="translate(-58.45 -127.48)"/><path id="Caminho_19" data-name="Caminho 19" class="cls-1" d="M71.17,185.39a8.27,8.27,0,0,0-6.37,3,20.56,20.56,0,0,1,2.33-.38,6.93,6.93,0,0,1,9.55,1.43,18.57,18.57,0,0,1,2.14,1.07A8.31,8.31,0,0,0,71.17,185.39Z" transform="translate(-58.45 -127.48)"/><path id="Caminho_21" data-name="Caminho 21" class="cls-1" d="M69.91,187.94a21.31,21.31,0,0,1,4,.61,5.85,5.85,0,0,0-2.83-.73A6.23,6.23,0,0,0,69.91,187.94Z" transform="translate(-58.45 -127.48)"/><path id="Caminho_23" data-name="Caminho 23" class="cls-1" d="M96.45,201.92a16.47,16.47,0,0,0-8,2.07,18.78,18.78,0,0,1,.31,2.89,14,14,0,0,1,21.4,9,20.9,20.9,0,0,1,2.62-.23A16.57,16.57,0,0,0,96.45,201.92Z" transform="translate(-58.45 -127.48)"/><path id="Caminho_25" data-name="Caminho 25" class="cls-1" d="M96.45,206.77a11.72,11.72,0,0,0-7.79,3q-.1.9-.27,1.77c.23.14.47.27.7.43a9.84,9.84,0,0,1,16.52,2.88,20,20,0,0,1,2,1.54l.34-.09A11.73,11.73,0,0,0,96.45,206.77Z" transform="translate(-58.45 -127.48)"/><path id="Caminho_27" data-name="Caminho 27" class="cls-1" d="M96.45,210.2a8.32,8.32,0,0,0-4.93,1.65,20,20,0,0,1,3.19-.28h.75a6.74,6.74,0,0,1,1-.08,6.93,6.93,0,0,1,2.8.59,20.57,20.57,0,0,1,3.73,1.29A8.26,8.26,0,0,0,96.45,210.2Z" transform="translate(-58.45 -127.48)"/><path id="Caminho_30" data-name="Caminho 30" class="cls-1" d="M113.14,218.74a17.73,17.73,0,0,0-3,.29,21.76,21.76,0,0,1,1.64,2.41c.44,0,.9-.06,1.36-.06a13.94,13.94,0,0,1,13.94,13.94h0a14.18,14.18,0,0,1-.75,4.48c1-.2,2-.42,2.92-.67a16.52,16.52,0,0,0-16.11-20.39Z" transform="translate(-58.45 -127.48)"/><path id="Caminho_32" data-name="Caminho 32" class="cls-1" d="M113.14,223.6h-.23a18.19,18.19,0,0,1,.68,1.87A9.84,9.84,0,0,1,123,235.68a9.7,9.7,0,0,1-1.5,4.85c.76-.08,1.52-.17,2.27-.28a11.71,11.71,0,0,0-10.61-16.66Z" transform="translate(-58.45 -127.48)"/><path id="Caminho_34" data-name="Caminho 34" class="cls-1" d="M114,227.07c.1.45.17.91.23,1.36a7,7,0,0,1,3.16,12.42c.69,0,1.37-.07,2-.12a8.28,8.28,0,0,0-5.44-13.66Z" transform="translate(-58.45 -127.48)"/><path id="Caminho_36" data-name="Caminho 36" class="cls-1" d="M119,235.32a5.87,5.87,0,0,0-4.65-5.74v1a4.92,4.92,0,0,1-1.25,9.67,4.08,4.08,0,0,1-.85-.08c-.11.22-.22.44-.34.66,1,0,2,.08,3,.08a5.83,5.83,0,0,0,4.09-5.59Z" transform="translate(-58.45 -127.48)"/><path id="Caminho_38" data-name="Caminho 38" class="cls-1" d="M117.28,235.32a4.17,4.17,0,0,0-2.87-3.93v.68a3.48,3.48,0,0,1-1.24,6.78H113c-.08.21-.18.42-.28.63a2.72,2.72,0,0,0,.49.05,4.15,4.15,0,0,0,4.11-4.19Z" transform="translate(-58.45 -127.48)"/><path id="Caminho_40" data-name="Caminho 40" class="cls-1" d="M116.06,235.32a2.94,2.94,0,0,0-1.71-2.66v.51a2.45,2.45,0,0,1-1,4.59l-.18.48h0A2.92,2.92,0,0,0,116.06,235.32Z" transform="translate(-58.45 -127.48)"/><path id="Caminho_42" data-name="Caminho 42" class="cls-1" d="M115.05,235.32a1.92,1.92,0,0,0-.8-1.56.62.62,0,0,1,0,.33,1.6,1.6,0,0,1,.2,2.26h0a1.49,1.49,0,0,1-.79.51,1.16,1.16,0,0,1-.08.32A1.91,1.91,0,0,0,115.05,235.32Z" transform="translate(-58.45 -127.48)"/><path id="Caminho_44" data-name="Caminho 44" class="cls-1" d="M114.42,235.32a1.37,1.37,0,0,0-.29-.79l-.06.39a1,1,0,0,1-.26,1.15,1.64,1.64,0,0,1-.1.38A1.26,1.26,0,0,0,114.42,235.32Z" transform="translate(-58.45 -127.48)"/><path id="Caminho_47" data-name="Caminho 47" class="cls-1" d="M62.06,194.9a7.71,7.71,0,0,1,1.18.06A13.91,13.91,0,0,1,83,207.61a14.7,14.7,0,0,1-.1,1.63,18.76,18.76,0,0,1,2.54.81,16.54,16.54,0,0,0-26.12-15.82l.15.86a20.38,20.38,0,0,1,2.59-.19Z" transform="translate(-58.45 -127.48)"/><path id="Caminho_49" data-name="Caminho 49" class="cls-1" d="M80.78,207.61A11.71,11.71,0,0,0,69.07,195.9h-.74A20.14,20.14,0,0,1,75,199.71a10.24,10.24,0,0,1,2,2,20,20,0,0,1,3.81,6.65A6.26,6.26,0,0,1,80.78,207.61Z" transform="translate(-58.45 -127.48)"/><path id="Caminho_52" data-name="Caminho 52" class="cls-1" d="M62.06,200.67a14,14,0,0,1,12.73,8.27,19.28,19.28,0,0,1,2.73-.28A16.58,16.58,0,0,0,62.06,198c-.64,0-1.28.05-1.91.12.22.87.46,1.72.72,2.57C61.27,200.7,61.66,200.67,62.06,200.67Z" transform="translate(-58.45 -127.48)"/><path id="Caminho_54" data-name="Caminho 54" class="cls-1" d="M70.8,210.06c.58-.23,1.17-.44,1.77-.62a11.72,11.72,0,0,0-10.51-6.54h-.47c.22.62.45,1.24.69,1.85A9.84,9.84,0,0,1,70.8,210.06Z" transform="translate(-58.45 -127.48)"/><path id="Caminho_56" data-name="Caminho 56" class="cls-1" d="M68.21,211.33c.38-.22.77-.43,1.16-.62a8.31,8.31,0,0,0-6.46-4.34c.2.49.43,1,.65,1.44a7,7,0,0,1,4.65,3.52Z" transform="translate(-58.45 -127.48)"/><path id="Caminho_58" data-name="Caminho 58" class="cls-1" d="M66.48,212.47c.26-.19.51-.38.78-.56a5.92,5.92,0,0,0-3.06-2.75c.24.5.5,1,.76,1.48A5,5,0,0,1,66.48,212.47Z" transform="translate(-58.45 -127.48)"/><path id="Caminho_61" data-name="Caminho 61" class="cls-1" d="M111.28,231.28A16.57,16.57,0,0,0,94.72,214.7h0a18.11,18.11,0,0,0-2.21.17,20.67,20.67,0,0,1,2,2.48h.21a13.93,13.93,0,0,1,10.84,22.73c1,.17,2,.31,3,.43a16.53,16.53,0,0,0,2.72-9.23Z" transform="translate(-58.45 -127.48)"/><path id="Caminho_63" data-name="Caminho 63" class="cls-1" d="M106.42,231.28a11.73,11.73,0,0,0-10.63-11.67,20.68,20.68,0,0,1,.85,2,9.85,9.85,0,0,1,4.09,17.45c.74.2,1.48.37,2.23.53A11.61,11.61,0,0,0,106.42,231.28Z" transform="translate(-58.45 -127.48)"/><path id="Caminho_65" data-name="Caminho 65" class="cls-1" d="M103,231.28a8.3,8.3,0,0,0-5.8-7.91c.13.51.25,1,.34,1.54a7,7,0,0,1-.65,13c.62.21,1.24.41,1.87.6A8.28,8.28,0,0,0,103,231.28Z" transform="translate(-58.45 -127.48)"/><path id="Caminho_67" data-name="Caminho 67" class="cls-1" d="M97.81,227.47a4.89,4.89,0,0,1-1.47,8.43c-.16.39-.34.76-.52,1.13a5.85,5.85,0,0,0,1.92-10.76C97.78,226.67,97.79,227.07,97.81,227.47Z" transform="translate(-58.45 -127.48)"/><path id="Caminho_69" data-name="Caminho 69" class="cls-1" d="M98.85,231.28a4.16,4.16,0,0,0-1-2.69,9.77,9.77,0,0,1-.06,1.08,3.44,3.44,0,0,1-.72,4.18c-.1.35-.22.7-.34,1A4.11,4.11,0,0,0,98.85,231.28Z" transform="translate(-58.45 -127.48)"/><path id="Caminho_71" data-name="Caminho 71" class="cls-1" d="M97.63,231.17c-.06.35-.1.71-.17,1.07a2.85,2.85,0,0,0,.18-1A.15.15,0,0,1,97.63,231.17Z" transform="translate(-58.45 -127.48)"/><path id="Caminho_73" data-name="Caminho 73" class="cls-1" d="M94.71,228.35a16.56,16.56,0,0,0-26.93-12.93c.49.73,1,1.45,1.51,2.16a13.93,13.93,0,0,1,21,17.61c.8.38,1.6.75,2.41,1.1a16.4,16.4,0,0,0,2-7.94Z" transform="translate(-58.45 -127.48)"/><path id="Caminho_75" data-name="Caminho 75" class="cls-1" d="M89.85,228.35a11.71,11.71,0,0,0-19.22-9c.39.48.78,1,1.18,1.44a9.85,9.85,0,0,1,14.87,12.46c.53.31,1.07.63,1.61.92A11.64,11.64,0,0,0,89.85,228.35Z" transform="translate(-58.45 -127.48)"/><path id="Caminho_77" data-name="Caminho 77" class="cls-1" d="M86.42,228.35a8.29,8.29,0,0,0-8.29-8.27A8.38,8.38,0,0,0,72.84,222l.89,1a7,7,0,0,1,10.49,8.79c.37.24.73.48,1.11.71A8.25,8.25,0,0,0,86.42,228.35Z" transform="translate(-58.45 -127.48)"/><path id="Caminho_79" data-name="Caminho 79" class="cls-1" d="M84,228.35a5.85,5.85,0,0,0-5.84-5.86h0a5.86,5.86,0,0,0-3.64,1.27l.67.68a4.94,4.94,0,0,1,7.92,3.88,4.74,4.74,0,0,1-.55,2.28c.26.18.51.38.78.56A5.71,5.71,0,0,0,84,228.35Z" transform="translate(-58.45 -127.48)"/><path id="Caminho_81" data-name="Caminho 81" class="cls-1" d="M78.14,224.2a4.27,4.27,0,0,0-2.41.78l.49.46a3.49,3.49,0,0,1,5.11,4.32l.53.38a4.11,4.11,0,0,0-1.88-5.5,4.17,4.17,0,0,0-1.84-.42Z" transform="translate(-58.45 -127.48)"/><path id="Caminho_83" data-name="Caminho 83" class="cls-1" d="M81.06,228.35a2.91,2.91,0,0,0-2.89-2.93h0a2.94,2.94,0,0,0-1.53.42l.35.34a2.43,2.43,0,0,1,1.15-.3,2.47,2.47,0,0,1,2.46,2.47,2.24,2.24,0,0,1-.13.73c.14.1.26.21.39.31a2.83,2.83,0,0,0,.2-1Z" transform="translate(-58.45 -127.48)"/><path id="Caminho_85" data-name="Caminho 85" class="cls-1" d="M78.14,226.43a1.86,1.86,0,0,0-.7.14l.25.21a1.62,1.62,0,0,1,2,1.07,1.73,1.73,0,0,1,.07.5v.16l.26.21a2.28,2.28,0,0,0,0-.37,1.92,1.92,0,0,0-1.89-1.92Z" transform="translate(-58.45 -127.48)"/><path id="Caminho_87" data-name="Caminho 87" class="cls-1" d="M78.14,227.06H78l.34.3a1,1,0,0,1,.71.61l.32.25a1.28,1.28,0,0,0-1.26-1.16Z" transform="translate(-58.45 -127.48)"/></g><g id="Vermelho"><path id="Caminho_59" data-name="Caminho 59" class="cls-2" d="M66.48,212.47A5,5,0,0,0,65,210.64c.37.71.76,1.41,1.16,2.1Z" transform="translate(-58.45 -127.48)"/><path id="Caminho_60" data-name="Caminho 60" class="cls-2" d="M112.65,239.41c.1-.21.2-.42.28-.63l.2-.54.18-.48c.06-.19.14-.37.21-.57s0-.21.08-.32a1.19,1.19,0,0,0,.11-.42,1.64,1.64,0,0,1,.1-.38c.1-.39.19-.77.26-1.15l.06-.39a3.35,3.35,0,0,1,.07-.44,1.82,1.82,0,0,1,0-.33,2.89,2.89,0,0,0,.08-.59,4.34,4.34,0,0,0,0-.51v-3.09a7.55,7.55,0,0,0-.15-1.15c-.06-.38-.13-.91-.23-1.36s-.25-1.07-.41-1.59a18.19,18.19,0,0,0-.68-1.87,20,20,0,0,0-1.09-2.17,21.76,21.76,0,0,0-1.64-2.41,20.59,20.59,0,0,0-4.47-4.17,17.28,17.28,0,0,0-2.63-1.46,19.76,19.76,0,0,0-7.52-1.8h-.75a20,20,0,0,0-3.19.28c-.67.11-1.34.26-2,.43a20.66,20.66,0,0,1,3,2.6,18.11,18.11,0,0,1,2.21-.17,16.58,16.58,0,0,1,13.76,25.81c1.15.13,2.31.24,3.48.31.12-.22.23-.44.34-.66S112.55,239.66,112.65,239.41Z" transform="translate(-58.45 -127.48)"/><path id="Caminho_62" data-name="Caminho 62" class="cls-2" d="M108.65,231.28a13.94,13.94,0,0,0-13.94-13.94h-.16a20.24,20.24,0,0,1,1.29,2.26,11.72,11.72,0,0,1,7.17,20c.84.18,1.69.35,2.55.49A13.84,13.84,0,0,0,108.65,231.28Z" transform="translate(-58.45 -127.48)"/><path id="Caminho_64" data-name="Caminho 64" class="cls-2" d="M104.55,231.28a9.84,9.84,0,0,0-7.92-9.67c.21.58.4,1.17.55,1.76a8.28,8.28,0,0,1,1.56,15.13c.66.2,1.32.39,2,.56A9.78,9.78,0,0,0,104.55,231.28Z" transform="translate(-58.45 -127.48)"/><path id="Caminho_66" data-name="Caminho 66" class="cls-2" d="M101.68,231.28a7,7,0,0,0-4.15-6.37c.08.45.16.9.21,1.36A5.85,5.85,0,0,1,95.82,237c-.08.14-.14.29-.21.43.42.16.84.29,1.27.44A7,7,0,0,0,101.68,231.28Z" transform="translate(-58.45 -127.48)"/><path id="Caminho_68" data-name="Caminho 68" class="cls-2" d="M99.63,231.28a4.9,4.9,0,0,0-1.82-3.81v1.12a4.11,4.11,0,0,1-.39,5.79h0a3.57,3.57,0,0,1-.72.5c-.12.34-.24.69-.38,1A4.87,4.87,0,0,0,99.63,231.28Z" transform="translate(-58.45 -127.48)"/><path id="Caminho_70" data-name="Caminho 70" class="cls-2" d="M98.19,231.28a3.38,3.38,0,0,0-.41-1.61,7.48,7.48,0,0,1-.15,1.5v.11a2.85,2.85,0,0,1-.18,1c-.11.54-.25,1.07-.4,1.59A3.45,3.45,0,0,0,98.19,231.28Z" transform="translate(-58.45 -127.48)"/><path id="Caminho_72" data-name="Caminho 72" class="cls-2" d="M96.34,235.9c.14-.33.26-.68.38-1s.24-.7.34-1c.15-.52.29-1.05.4-1.59.07-.36.11-.72.17-1.07s.12-1,.15-1.5a9.77,9.77,0,0,1,.06-1.08v-1.12a6.91,6.91,0,0,0-.07-1.2c-.07-.4-.13-.91-.21-1.36s-.21-1-.34-1.54-.34-1.18-.55-1.76a20.68,20.68,0,0,0-.85-2,20.24,20.24,0,0,0-1.29-2.26,20.12,20.12,0,0,0-5-5.08L89.1,212c-.23-.16-.47-.29-.7-.43a20.89,20.89,0,0,0-3-1.48,18.76,18.76,0,0,0-2.54-.81c-.66-.16-1.33-.29-2-.39a19.91,19.91,0,0,0-2.78-.22h-.57a19.28,19.28,0,0,0-2.73.28c-.75.13-1.49.3-2.22.5s-1.19.39-1.77.62-1,.41-1.43.65-.78.4-1.16.62l-1,.58a8.54,8.54,0,0,0-.78.56l-.36.27c.54.91,1.09,1.8,1.66,2.68a16.57,16.57,0,0,1,24.9,20.87c1,.41,1.94.81,2.93,1.17.07-.14.13-.29.21-.43a8,8,0,0,0,.58-1.17Z" transform="translate(-58.45 -127.48)"/><path id="Caminho_74" data-name="Caminho 74" class="cls-2" d="M92.08,228.35a13.94,13.94,0,0,0-22.79-10.77c.43.6.88,1.18,1.34,1.77a11.71,11.71,0,0,1,17.66,14.82l2,1A13.81,13.81,0,0,0,92.08,228.35Z" transform="translate(-58.45 -127.48)"/><path id="Caminho_76" data-name="Caminho 76" class="cls-2" d="M88,228.35a9.85,9.85,0,0,0-16.18-7.56l1,1.19A8.28,8.28,0,0,1,85.3,232.45c.44.28.89.54,1.35.8A9.77,9.77,0,0,0,88,228.35Z" transform="translate(-58.45 -127.48)"/><path id="Caminho_78" data-name="Caminho 78" class="cls-2" d="M85.1,228.35A7,7,0,0,0,73.73,223l.77.81A5.85,5.85,0,0,1,84,228.38h0a5.75,5.75,0,0,1-.7,2.76l.93.6a6.91,6.91,0,0,0,.88-3.39Z" transform="translate(-58.45 -127.48)"/><path id="Caminho_80" data-name="Caminho 80" class="cls-2" d="M78.14,223.42a4.86,4.86,0,0,0-3,1l.56.54a4.12,4.12,0,0,1,6.13,5.14l.65.46a4.88,4.88,0,0,0-2.09-6.6h0a5,5,0,0,0-2.28-.55Z" transform="translate(-58.45 -127.48)"/><path id="Caminho_82" data-name="Caminho 82" class="cls-2" d="M78.14,224.85a3.46,3.46,0,0,0-1.92.58l.42.4a2.91,2.91,0,0,1,4.42,2.51,2.83,2.83,0,0,1-.2,1l.47.35a3.46,3.46,0,0,0-3.19-4.84Z" transform="translate(-58.45 -127.48)"/><path id="Caminho_84" data-name="Caminho 84" class="cls-2" d="M78.14,225.85a2.43,2.43,0,0,0-1.15.3l.45.39a1.86,1.86,0,0,1,.7-.14,1.92,1.92,0,0,1,1.91,1.92,2.28,2.28,0,0,1,0,.37l.46.36a2.24,2.24,0,0,0,.13-.73,2.48,2.48,0,0,0-2.47-2.47Z" transform="translate(-58.45 -127.48)"/><path id="Caminho_86" data-name="Caminho 86" class="cls-2" d="M78.14,226.71a2.34,2.34,0,0,0-.45.07l.34.3h.11a1.28,1.28,0,0,1,1.26,1.18l.35.27v-.16a1.63,1.63,0,0,0-1.6-1.66h0Z" transform="translate(-58.45 -127.48)"/><path id="Caminho_88" data-name="Caminho 88" class="cls-2" d="M78.37,227.38l.71.61A1,1,0,0,0,78.37,227.38Z" transform="translate(-58.45 -127.48)"/><path id="Caminho_50" data-name="Caminho 50" class="cls-2" d="M75,199.74a21,21,0,0,1,2,2A10.24,10.24,0,0,0,75,199.74Z" transform="translate(-58.45 -127.48)"/><path id="Caminho_51" data-name="Caminho 51" class="cls-2" d="M62.06,198a16.57,16.57,0,0,1,15.49,10.67h.62a20.9,20.9,0,0,1,2.74.18,1.85,1.85,0,0,0-.17-.5,19.88,19.88,0,0,0-5.81-8.65,19.79,19.79,0,0,0-11.74-4.81c-.39,0-.78-.06-1.18-.06a20.51,20.51,0,0,0-2.59.19c.2,1,.43,2.06.68,3.07q1-.1,1.92-.12Z" transform="translate(-58.45 -127.48)"/><path id="Caminho_53" data-name="Caminho 53" class="cls-2" d="M72.55,209.44c.73-.2,1.47-.37,2.22-.5A14,14,0,0,0,62,200.67a7.91,7.91,0,0,0-1.19.06q.34,1.11.72,2.19H62A11.73,11.73,0,0,1,72.55,209.44Z" transform="translate(-58.45 -127.48)"/><path id="Caminho_55" data-name="Caminho 55" class="cls-2" d="M69.37,210.71c.47-.24.94-.45,1.43-.65a9.85,9.85,0,0,0-8.52-5.29c.21.53.41,1.07.64,1.6A8.32,8.32,0,0,1,69.37,210.71Z" transform="translate(-58.45 -127.48)"/><path id="Caminho_57" data-name="Caminho 57" class="cls-2" d="M67.26,211.91c.32-.21.66-.4,1-.58a7,7,0,0,0-4.64-3.48c.2.45.41.91.63,1.35A5.9,5.9,0,0,1,67.26,211.91Z" transform="translate(-58.45 -127.48)"/><path id="Caminho_45" data-name="Caminho 45" class="cls-2" d="M114.15,235.32a1.14,1.14,0,0,0-.08-.4c-.07.38-.16.76-.26,1.15A1,1,0,0,0,114.15,235.32Z" transform="translate(-58.45 -127.48)"/><path id="Caminho_46" data-name="Caminho 46" class="cls-2" d="M69.06,191a16.58,16.58,0,0,1,16.58,16.56h0a16.5,16.5,0,0,1-.2,2.44,21.4,21.4,0,0,1,3,1.48q.17-.87.27-1.77c.07-.71.12-1.42.12-2.15v-.71a18.78,18.78,0,0,0-.31-2.89,20.79,20.79,0,0,0-.85-3.09c-.22-.62-.48-1.22-.76-1.82a20.39,20.39,0,0,0-4-5.53,23.63,23.63,0,0,0-2-1.73,22.38,22.38,0,0,0-2-1.33,18.57,18.57,0,0,0-2.14-1.07A20.74,20.74,0,0,0,70,187.9h-.89a13.87,13.87,0,0,0-1.93.1,20.56,20.56,0,0,0-2.33.38,21.53,21.53,0,0,0-2.34.68,20.49,20.49,0,0,0-2.46,1.06c-.41.21-.8.44-1.19.68.14,1.15.31,2.3.51,3.43A16.43,16.43,0,0,1,69.05,191Z" transform="translate(-58.45 -127.48)"/><path id="Caminho_48" data-name="Caminho 48" class="cls-2" d="M83,207.61A13.91,13.91,0,0,0,63.24,195a20.06,20.06,0,0,1,5.09,1h.73a11.71,11.71,0,0,1,11.72,11.7h0v.74c0,.25.12.33.17.5.67.1,1.34.23,2,.39a14.22,14.22,0,0,0,0-1.73Z" transform="translate(-58.45 -127.48)"/><path id="Caminho_29" data-name="Caminho 29" class="cls-2" d="M116,215.85a20.64,20.64,0,0,0-2.83-.23h-.38a20.9,20.9,0,0,0-2.62.23c-.73.12-1.46.27-2.18.46l-.34.09a20.21,20.21,0,0,1,2.52,2.63,16.51,16.51,0,0,1,19.11,20.1c1.14-.29,2.26-.63,3.37-1a18.93,18.93,0,0,0,.23-2.82A19.69,19.69,0,0,0,116,215.85Z" transform="translate(-58.45 -127.48)"/><path id="Caminho_31" data-name="Caminho 31" class="cls-2" d="M113.14,221.38a10.32,10.32,0,0,0-1.36.06,20.32,20.32,0,0,1,1.13,2.17h.27a11.71,11.71,0,0,1,10.61,16.66c.87-.14,1.72-.29,2.58-.46a14.18,14.18,0,0,0,.75-4.48,14,14,0,0,0-13.88-14h0Z" transform="translate(-58.45 -127.48)"/><path id="Caminho_33" data-name="Caminho 33" class="cls-2" d="M113.55,225.48c.16.52.3,1.05.41,1.59a8.28,8.28,0,0,1,5.44,13.66c.69,0,1.39-.11,2.08-.19a9.85,9.85,0,0,0-7.93-15.06Z" transform="translate(-58.45 -127.48)"/><path id="Caminho_35" data-name="Caminho 35" class="cls-2" d="M120.1,235.32a7,7,0,0,0-5.91-6.89c.06.38.11.76.15,1.15a5.86,5.86,0,0,1,.57,11.32h.21c.76,0,1.5,0,2.24-.06a6.91,6.91,0,0,0,2.75-5.52Z" transform="translate(-58.45 -127.48)"/><path id="Caminho_37" data-name="Caminho 37" class="cls-2" d="M114.41,231.39a4.13,4.13,0,0,1-1.27,8.07,2.72,2.72,0,0,1-.49-.05c-.11.25-.24.5-.36.75a4.08,4.08,0,0,0,.85.08,4.92,4.92,0,0,0,1.25-9.67v.71a.52.52,0,0,1,0,.11Z" transform="translate(-58.45 -127.48)"/><path id="Caminho_39" data-name="Caminho 39" class="cls-2" d="M116.62,235.32a3.49,3.49,0,0,0-2.24-3.25v.59a2.92,2.92,0,0,1-1.21,5.58h0c-.07.18-.12.36-.2.54h.21A3.48,3.48,0,0,0,116.62,235.32Z" transform="translate(-58.45 -127.48)"/><path id="Caminho_41" data-name="Caminho 41" class="cls-2" d="M115.6,235.32a2.48,2.48,0,0,0-1.27-2.15c0,.2-.06.39-.08.59a1.91,1.91,0,0,1,.45,2.66,1.86,1.86,0,0,1-1.18.77c-.07.2-.15.38-.21.57A2.44,2.44,0,0,0,115.6,235.32Z" transform="translate(-58.45 -127.48)"/><path id="Caminho_43" data-name="Caminho 43" class="cls-2" d="M114.77,235.32a1.63,1.63,0,0,0-.57-1.23,1,1,0,0,1-.07.44,1.37,1.37,0,0,1,.29.79,1.26,1.26,0,0,1-.71,1.13,1.19,1.19,0,0,1-.11.42A1.62,1.62,0,0,0,114.77,235.32Z" transform="translate(-58.45 -127.48)"/><path id="Caminho_4-2" data-name="Caminho 4-2" class="cls-2" d="M91.55,186.9a16.56,16.56,0,0,1,16.52,15.67,20,20,0,0,1,3.09,2.8c.06-.62.1-1.26.1-1.9a19.59,19.59,0,0,0-19.43-19.75h0a20.26,20.26,0,0,0-3.48.28,18.35,18.35,0,0,1,1.35,3A16.38,16.38,0,0,1,91.55,186.9Z" transform="translate(-58.45 -127.48)"/><path id="Caminho_6-2" data-name="Caminho 6-2" class="cls-2" d="M102.64,199.78a19.9,19.9,0,0,1,2.57,1.07,13.93,13.93,0,0,0-13.66-11.32,6.52,6.52,0,0,0-1.08.06c.15.72.26,1.45.34,2.2h.74A11.71,11.71,0,0,1,102.64,199.78Z" transform="translate(-58.45 -127.48)"/><path id="Caminho_8-2" data-name="Caminho 8-2" class="cls-2" d="M98.42,198.85c.66.07,1.32.17,2,.3a9.86,9.86,0,0,0-8.85-5.56h-.66a10,10,0,0,1-.08,1.55h.73A8.3,8.3,0,0,1,98.42,198.85Z" transform="translate(-58.45 -127.48)"/><path id="Caminho_10-2" data-name="Caminho 10-2" class="cls-2" d="M95.11,198.85c.44,0,.89-.07,1.34-.07h.22a7,7,0,0,0-5.12-2.27,4.34,4.34,0,0,0-.88.06c-.06.39-.11.78-.19,1.15a7.6,7.6,0,0,1,1.07-.1A5.88,5.88,0,0,1,95.11,198.85Z" transform="translate(-58.45 -127.48)"/><path id="Caminho_12-2" data-name="Caminho 12-2" class="cls-2" d="M91.78,199.35c.59-.14,1.19-.25,1.8-.34a4.77,4.77,0,0,0-2-.47,5,5,0,0,0-1.33.21c-.08.3-.15.6-.24.89a4.43,4.43,0,0,1,1.57-.31Z" transform="translate(-58.45 -127.48)"/><path id="Caminho_14-2" data-name="Caminho 14-2" class="cls-2" d="M71.17,177.1a16.53,16.53,0,0,1,15.65,22c.28.6.54,1.2.76,1.82a23,23,0,0,1,2.27-1,1,1,0,0,1,.11-.29c.09-.29.16-.59.24-.89s.19-.69.26-1,.13-.76.19-1.15.12-.89.15-1.34.08-1,.08-1.55h0a11.59,11.59,0,0,0-.09-1.86c-.09-.61-.19-1.48-.34-2.2a19.49,19.49,0,0,0-.75-2.58,18.35,18.35,0,0,0-1.35-3,19.71,19.71,0,0,0-26.8-7.58,21.73,21.73,0,0,0-2.83,1.93c-.16,1.54-.24,3.1-.27,4.66A16.54,16.54,0,0,1,71.17,177.1Z" transform="translate(-58.45 -127.48)"/><path id="Caminho_16" data-name="Caminho 16" class="cls-2" d="M71.17,182a11.73,11.73,0,0,1,11.74,11.6,18.76,18.76,0,0,1,2,2.36,13.93,13.93,0,0,0-26.33-8.17q.11,1.5.27,3c.39-.24.78-.47,1.19-.68A11.73,11.73,0,0,1,71.17,182Z" transform="translate(-58.45 -127.48)"/><path id="Caminho_18" data-name="Caminho 18" class="cls-2" d="M71.17,183.85a9.87,9.87,0,0,0-8.71,5.24,21.53,21.53,0,0,1,2.34-.68,8.28,8.28,0,0,1,11.66-1,8.16,8.16,0,0,1,2.34,3.17,22.38,22.38,0,0,1,2,1.33A9.86,9.86,0,0,0,71.17,183.85Z" transform="translate(-58.45 -127.48)"/><path id="Caminho_20" data-name="Caminho 20" class="cls-2" d="M71.17,186.7a7.09,7.09,0,0,0-4,1.3c.64-.06,1.28-.1,1.93-.1H70a6.23,6.23,0,0,1,1.22-.12,5.85,5.85,0,0,1,2.83.73,22.69,22.69,0,0,1,2.68.88A7,7,0,0,0,71.17,186.7Z" transform="translate(-58.45 -127.48)"/><path id="Caminho_22" data-name="Caminho 22" class="cls-2" d="M108.05,202.57a19,19,0,0,0-2.84-1.72,19.9,19.9,0,0,0-2.57-1.07,21.49,21.49,0,0,0-2.26-.61c-.66-.13-1.33-.23-2-.3s-1.16-.08-1.75-.08h-.22a8.54,8.54,0,0,0-1.34.07c-.44.07-1,.09-1.53.17s-1.21.2-1.8.34-1.3.36-1.93.58a23,23,0,0,0-2.27,1,20.79,20.79,0,0,1,.85,3.09,16.55,16.55,0,0,1,24.33,11.63h.38a20.64,20.64,0,0,1,2.83.23,19.67,19.67,0,0,0-4.83-10.46,20.37,20.37,0,0,0-3-2.87Z" transform="translate(-58.45 -127.48)"/><path id="Caminho_24" data-name="Caminho 24" class="cls-2" d="M96.45,204.55a13.91,13.91,0,0,0-7.71,2.3v.73a12.86,12.86,0,0,1-.12,2.15,11.69,11.69,0,0,1,19.29,6.58c.72-.19,1.45-.34,2.18-.46A14,14,0,0,0,96.45,204.55Z" transform="translate(-58.45 -127.48)"/><path id="Caminho_26" data-name="Caminho 26" class="cls-2" d="M96.45,208.63A9.78,9.78,0,0,0,89.09,212l.43.31c.66-.17,1.33-.32,2-.43A8.25,8.25,0,0,1,103,213.4a17.23,17.23,0,0,1,2.63,1.45A9.86,9.86,0,0,0,96.45,208.63Z" transform="translate(-58.45 -127.48)"/><path id="Caminho_28" data-name="Caminho 28" class="cls-2" d="M96.45,211.52a6.74,6.74,0,0,0-1,.08,20.09,20.09,0,0,1,3.79.51A6.88,6.88,0,0,0,96.45,211.52Z" transform="translate(-58.45 -127.48)"/></g></g></svg>